<svg xmlns="http://www.w3.org/2000/svg" width="18.609" height="12" viewBox="0 0 18.609 12">
  <g id="Icon_feather-arrow-right" data-name="Icon feather-arrow-right" transform="translate(6.469 -6.75)">
    <path id="Path_49" data-name="Path 49" d="M24.609,18.75H7.5a.75.75,0,0,1,0-1.5H24.609a.75.75,0,1,1,0,1.5Z" transform="translate(-13.219 -5.25)"/>
    <path id="Path_50" data-name="Path 50" d="M18,18.75a.75.75,0,0,1-.53-1.28l4.72-4.72L17.47,8.03A.75.75,0,0,1,18.53,6.97l5.25,5.25a.75.75,0,0,1,0,1.061l-5.25,5.25A.748.748,0,0,1,18,18.75Z" transform="translate(-11.859)"/>
  </g>
</svg>
