<svg id="cart" xmlns="http://www.w3.org/2000/svg" width="20.633" height="26" viewBox="0 0 20.633 26">
  <path id="Path_106" data-name="Path 106" d="M15.213,17.024a5.2,5.2,0,0,1-5.1-4.177.878.878,0,0,1,1.733-.277,3.467,3.467,0,0,0,6.786,0,.878.878,0,0,1,1.733.277A5.2,5.2,0,0,1,15.213,17.024Z" transform="translate(-4.897 -2.447)"/>
  <path id="Path_107" data-name="Path 107" d="M22.126,27.9H6.7a2.6,2.6,0,0,1-2.6-2.73l.7-14.941A2.6,2.6,0,0,1,7.4,7.74H21.424a2.6,2.6,0,0,1,2.6,2.487l.7,14.941a2.6,2.6,0,0,1-2.6,2.73ZM7.4,9.482a.867.867,0,0,0-.867.867l-.7,14.907a.867.867,0,0,0,.867.91H22.126a.867.867,0,0,0,.867-.91l-.7-14.941a.867.867,0,0,0-.867-.867Z" transform="translate(-4.096 -1.899)"/>
  <path id="Path_108" data-name="Path 108" d="M20.4,7.717H18.667V6.2a3.467,3.467,0,1,0-6.933,0V7.717H10V6.2a5.2,5.2,0,0,1,10.4,0Z" transform="translate(-4.883 -1)"/>
</svg>
