<svg xmlns="http://www.w3.org/2000/svg" width="25" height="25" viewBox="0 0 25 25">
  <g id="Group_2962" data-name="Group 2962" transform="translate(-836 -1559)">
    <g id="Group_2961" data-name="Group 2961">
      <path id="Icon_feather-check" data-name="Icon feather-check" d="M9.056,16.723a1,1,0,0,1-.707-.293L5.293,13.374A1,1,0,0,1,6.707,11.96l2.349,2.349,6.016-6.016a1,1,0,0,1,1.414,1.414L9.763,16.43A1,1,0,0,1,9.056,16.723Z" transform="translate(837.541 1559.315)" fill="#585858"/>
      <path id="Ellipse_65" data-name="Ellipse 65" d="M12.5,2A10.5,10.5,0,1,0,23,12.5,10.512,10.512,0,0,0,12.5,2m0-2A12.5,12.5,0,1,1,0,12.5,12.5,12.5,0,0,1,12.5,0Z" transform="translate(836 1559)" fill="#585858"/>
    </g>
  </g>
</svg>
