<svg xmlns="http://www.w3.org/2000/svg" width="22.295" height="22.295" viewBox="0 0 22.295 22.295">
  <g id="contact1" transform="translate(-2 -2)" opacity="0.5">
    <path id="Path_55" data-name="Path 55" d="M13.147,2A11.147,11.147,0,0,1,21.03,21.03,11.147,11.147,0,0,1,5.265,5.265,11.074,11.074,0,0,1,13.147,2Zm0,20.295A9.147,9.147,0,1,0,4,13.147,9.158,9.158,0,0,0,13.147,22.295Z" transform="translate(0)" fill="#fff"/>
    <path id="Path_56" data-name="Path 56" d="M22.058,18.118a1,1,0,0,1-.446-.106l-4.059-2.029A1,1,0,0,1,17,15.088V9a1,1,0,0,1,2,0v5.47l3.506,1.753a1,1,0,0,1-.448,1.895Z" transform="translate(-4.853 -1.941)" fill="#fff"/>
  </g>
</svg>
