<svg xmlns="http://www.w3.org/2000/svg" width="34.5" height="28.777" viewBox="0 0 34.5 28.777">
  <path id="course3" d="M33.828,50.162a1.011,1.011,0,0,0,0-1.905l-16.239-5.73a1.01,1.01,0,0,0-.673,0L.674,48.256a1.011,1.011,0,0,0,0,1.905l6.433,2.287v6.593c0,1.088,1.135,2.008,3.374,2.735a22.6,22.6,0,0,0,6.771.982,22.6,22.6,0,0,0,6.771-.982c2.239-.727,3.374-1.647,3.374-2.735V52.449l2.656-.944V60.64a3.04,3.04,0,0,0,0,5.735v3.86a1.011,1.011,0,1,0,2.021,0v-3.86a3.04,3.04,0,0,0,0-5.735V50.786ZM31.062,64.527a1.019,1.019,0,1,1,1.019-1.019A1.02,1.02,0,0,1,31.062,64.527ZM17.25,44.552l13.212,4.661L17.25,53.91l-13.212-4.7ZM25.373,58.89A6.243,6.243,0,0,1,22.921,60a21.311,21.311,0,0,1-5.671.739A21.311,21.311,0,0,1,11.579,60a6.242,6.242,0,0,1-2.452-1.11V53.167l7.785,2.768a1.01,1.01,0,0,0,.677,0l7.785-2.768V58.89Z" transform="translate(0 -42.469)" fill="#409e52"/>
</svg>
