<svg xmlns="http://www.w3.org/2000/svg" width="23.092" height="30.481" viewBox="0 0 23.092 30.481">
  <g id="course2" transform="translate(-35.998)">
    <path id="Path_354" data-name="Path 354" d="M58.065,28.43H56.25V25.192c0-3.247-1.781-6.232-5.016-8.406a1.849,1.849,0,0,1-.664-1.545,1.848,1.848,0,0,1,.663-1.545c3.235-2.174,5.016-5.159,5.017-8.406V2.051h1.815a1.026,1.026,0,0,0,0-2.051H37.023a1.026,1.026,0,0,0,0,2.051h1.815V5.29c0,3.247,1.781,6.233,5.016,8.406a1.848,1.848,0,0,1,.664,1.545,1.848,1.848,0,0,1-.664,1.545c-3.235,2.173-5.016,5.159-5.016,8.406V28.43H37.023a1.026,1.026,0,0,0,0,2.051H58.065a1.025,1.025,0,1,0,0-2.051ZM40.889,25.192c0-3.43,2.575-5.672,4.109-6.7a3.847,3.847,0,0,0,1.571-3.247A3.847,3.847,0,0,0,45,11.993c-1.535-1.031-4.109-3.273-4.109-6.7V2.051H54.2V5.29c0,3.43-2.575,5.672-4.109,6.7a3.847,3.847,0,0,0-1.57,3.247,3.848,3.848,0,0,0,1.571,3.247c1.535,1.031,4.109,3.273,4.109,6.7V28.43h-.34c-.843-3.169-5.146-6.614-5.683-7.034a1.026,1.026,0,0,0-1.263,0c-.538.42-4.84,3.865-5.684,7.034h-.34V25.192ZM51.7,28.43h-8.32a16.594,16.594,0,0,1,4.16-4.9A16.59,16.59,0,0,1,51.7,28.43Z" fill="#409e52"/>
    <path id="Path_355" data-name="Path 355" d="M139.531,173.081a1.026,1.026,0,1,0-.725-.3A1.033,1.033,0,0,0,139.531,173.081Z" transform="translate(-91.987 -153.477)" fill="#409e52"/>
    <path id="Path_356" data-name="Path 356" d="M139.533,104.234a1.025,1.025,0,0,0,1.025-1.025V101.4a1.025,1.025,0,1,0-2.051,0v1.813A1.025,1.025,0,0,0,139.533,104.234Z" transform="translate(-91.989 -90.069)" fill="#409e52"/>
  </g>
</svg>
