<svg xmlns="http://www.w3.org/2000/svg" width="29.224" height="26" viewBox="0 0 29.224 26">
  <path id="favorite" d="M14.612,26a1.714,1.714,0,0,1-1.13-.425c-1.181-1.032-2.319-2-3.323-2.858l-.005,0A61.8,61.8,0,0,1,2.9,15.9,10.877,10.877,0,0,1,0,8.783,9.134,9.134,0,0,1,2.318,2.544,7.858,7.858,0,0,1,8.164,0a7.351,7.351,0,0,1,4.592,1.585,9.394,9.394,0,0,1,1.856,1.938,9.4,9.4,0,0,1,1.857-1.938A7.351,7.351,0,0,1,21.06,0a7.859,7.859,0,0,1,5.846,2.544,9.134,9.134,0,0,1,2.318,6.238,10.876,10.876,0,0,1-2.9,7.12,61.79,61.79,0,0,1-7.255,6.81c-1.006.857-2.146,1.829-3.329,2.863A1.715,1.715,0,0,1,14.612,26ZM8.164,1.712A6.165,6.165,0,0,0,3.577,3.7,7.43,7.43,0,0,0,1.712,8.783a9.152,9.152,0,0,0,2.5,6.028,60.818,60.818,0,0,0,7.048,6.6l.005,0c1.008.859,2.151,1.833,3.34,2.873,1.2-1.042,2.341-2.017,3.351-2.878a60.829,60.829,0,0,0,7.047-6.6,9.153,9.153,0,0,0,2.5-6.028A7.43,7.43,0,0,0,25.647,3.7,6.165,6.165,0,0,0,21.06,1.712a5.678,5.678,0,0,0-3.545,1.227A8.307,8.307,0,0,0,15.54,5.225a1.081,1.081,0,0,1-1.856,0,8.3,8.3,0,0,0-1.975-2.286A5.677,5.677,0,0,0,8.164,1.712Zm0,0"/>
</svg>
