<svg xmlns="http://www.w3.org/2000/svg" width="27.977" height="27" viewBox="0 0 27.977 27">
  <path id="return-box_1_" data-name="return-box(1)" d="M20.388,16.811l3.651,2.108L12.2,25.752v5.063a.538.538,0,0,0,.276.477l2.743,1.584a.276.276,0,0,0,.413-.239v-4.9L27.47,20.9l3.651,2.108a1.076,1.076,0,0,1,.551.954V30.3a11.96,11.96,0,0,0-3.087-.579v-.425a1.185,1.185,0,0,0-1.945-.908l-4.2,3.517a1.467,1.467,0,0,0,.074,2.307L26.7,37.282a1.184,1.184,0,0,0,1.885-.955v-.469a5.2,5.2,0,0,1,2.443.885,3.658,3.658,0,0,1,.389.324,1.129,1.129,0,0,1-.3.244l-10.733,6.2a1.076,1.076,0,0,1-1.1,0l-10.733-6.2A1.076,1.076,0,0,1,8,36.357V23.963a1.076,1.076,0,0,1,.551-.954l10.733-6.2a1.076,1.076,0,0,1,1.1,0ZM27.682,34.9c5.894,0,7.564,5.629,2.723,8.159a.056.056,0,0,0,.04.1c8.043-1.978,7.481-12.574-2.763-12.574v-1.3a.282.282,0,0,0-.463-.216l-4.2,3.517a.564.564,0,0,0,.028.887l4.188,3.073a.282.282,0,0,0,.449-.227Z" transform="translate(-8.001 -16.66)" fill="#585858" fill-rule="evenodd"/>
</svg>
