<svg id="help" xmlns="http://www.w3.org/2000/svg" width="26.904" height="26.904" viewBox="0 0 26.904 26.904">
  <path id="Path_319" data-name="Path 319" d="M215.143,206.447a8.723,8.723,0,0,0-4.784-7.767,11.862,11.862,0,0,1-11.68,11.68,8.7,8.7,0,0,0,12.192,3.575l4.233,1.171-1.171-4.233A8.665,8.665,0,0,0,215.143,206.447Zm0,0" transform="translate(-188.24 -188.24)" fill="#585858"/>
  <path id="Path_320" data-name="Path 320" d="M20.545,10.273A10.273,10.273,0,1,0,1.424,15.494L.038,20.508l5.013-1.387a10.275,10.275,0,0,0,15.494-8.848ZM8.7,7.882H7.12a3.153,3.153,0,1,1,5.28,2.327l-1.339,1.226v1.229H9.485V10.74l1.851-1.695a1.56,1.56,0,0,0,.513-1.164,1.576,1.576,0,1,0-3.153,0Zm.788,6.358h1.576v1.576H9.485Zm0,0" fill="#585858"/>
</svg>
