<svg xmlns="http://www.w3.org/2000/svg" width="32.039" height="18.961" viewBox="0 0 32.039 18.961">
  <path id="fast-delivery_2_" data-name="fast-delivery(2)" d="M22.84.189c2.778.645,3.84,2.269,5.173,4.5H22.84ZM6.607,4.881a.824.824,0,0,1,.939.876.939.939,0,0,1-.936.939H.939a.939.939,0,1,0,0,1.877H9.386a.939.939,0,1,1,0,1.877H.939a.939.939,0,1,0,0,1.877H3v2.816a.939.939,0,0,0,.939.939H5.829a3.6,3.6,0,0,0,7.052,0h9.531a3.6,3.6,0,0,0,7.052,0H31.1a.939.939,0,0,0,.939-.939V9.512c0-2.754-2.9-2.937-2.908-2.941H21.9a.939.939,0,0,1-.939-.939V0H3.942A.939.939,0,0,0,3,.939V3H1.877a.939.939,0,0,0,0,1.877Zm20.548,9.265a1.721,1.721,0,1,1-2.938,1.217A1.721,1.721,0,0,1,27.155,14.146Zm-16.583,0a1.721,1.721,0,1,1-2.938,1.217A1.721,1.721,0,0,1,10.572,14.146Zm0,0" fill="#585858" fill-rule="evenodd"/>
</svg>
