<svg xmlns="http://www.w3.org/2000/svg" width="57.264" height="57.126" viewBox="0 0 57.264 57.126">
  <g id="footer-icon1" transform="translate(0 -0.617)">
    <path id="Path_143" data-name="Path 143" d="M263.668,332.231a.839.839,0,0,0-.839.839v7.34a4.859,4.859,0,0,1-4.853,4.853H254.33a.839.839,0,0,0,0,1.678h3.646a6.539,6.539,0,0,0,6.532-6.532v-7.34A.839.839,0,0,0,263.668,332.231Z" transform="translate(-225.127 -294.509)" fill="#409e52"/>
    <path id="Path_144" data-name="Path 144" d="M25.626,208.88H16.637a2.025,2.025,0,0,0-1.3.472l-4.921,4.122v-3.269a1.327,1.327,0,0,0-1.326-1.326H6.531a4.859,4.859,0,0,1-4.853-4.853V185.2a4.859,4.859,0,0,1,4.853-4.853H19.525a.839.839,0,0,0,0-1.678H6.532A6.539,6.539,0,0,0,0,185.2v18.831a6.539,6.539,0,0,0,6.532,6.532H8.74v4.26a1.051,1.051,0,0,0,1.726.806l5.952-4.986a.343.343,0,0,1,.22-.08h8.989a.839.839,0,0,0,0-1.678Z" transform="translate(0 -158.126)" fill="#409e52"/>
    <path id="Path_145" data-name="Path 145" d="M225.184,5.8A17.609,17.609,0,0,0,212.656.617h-.018A17.738,17.738,0,0,0,195.654,23.37a.839.839,0,1,0,1.61-.475A16.085,16.085,0,0,1,212.64,2.3h.016a16.048,16.048,0,1,1-4.833,31.356,2.3,2.3,0,0,0-2.226.49l-3.423,3.106V31.5a2.316,2.316,0,0,0-.7-1.651,16.09,16.09,0,0,1-2.9-3.82.839.839,0,0,0-1.473.806,17.77,17.77,0,0,0,3.208,4.218.621.621,0,0,1,.193.447v6.18a1.467,1.467,0,0,0,.883,1.358,1.5,1.5,0,0,0,.607.13,1.471,1.471,0,0,0,.992-.388l3.746-3.4a.613.613,0,0,1,.593-.133A17.729,17.729,0,0,0,225.184,5.8Z" transform="translate(-173.119)" fill="#409e52"/>
    <path id="Path_146" data-name="Path 146" d="M332.355,230.272a2.867,2.867,0,1,0,2.867,2.867A2.87,2.87,0,0,0,332.355,230.272Zm0,4.055a1.189,1.189,0,1,1,1.189-1.189A1.19,1.19,0,0,1,332.355,234.327Z" transform="translate(-292.621 -203.958)" fill="#409e52"/>
    <path id="Path_147" data-name="Path 147" d="M296.868,49.807a8.172,8.172,0,1,0-14.748-4.846,2.518,2.518,0,1,0,5.035,0,3.19,3.19,0,0,1,.03-.44,3.112,3.112,0,0,1,3.016-2.69.839.839,0,0,0-.02-1.678h-.021a4.785,4.785,0,0,0-4.637,4.136,4.883,4.883,0,0,0-.046.672.839.839,0,1,1-1.678,0,6.571,6.571,0,0,1,.062-.9,6.49,6.49,0,1,1,7.915,7.221.839.839,0,0,0-.649.817v2.632a.839.839,0,1,1-1.678,0v-3.39a1.611,1.611,0,0,1,1.416-1.6,4.8,4.8,0,0,0,4.218-5.158,4.736,4.736,0,0,0-1-2.559.839.839,0,1,0-1.322,1.034,3.064,3.064,0,0,1,.652,1.654,3.129,3.129,0,0,1-2.744,3.362,3.29,3.29,0,0,0-2.9,3.267v3.39a2.518,2.518,0,1,0,5.035,0V52.734A8.148,8.148,0,0,0,296.868,49.807Z" transform="translate(-250.553 -32.129)" fill="#409e52"/>
    <path id="Path_148" data-name="Path 148" d="M48,264.826h.9a.839.839,0,1,0,0-1.678H48a.839.839,0,1,0,0,1.678Z" transform="translate(-41.888 -233.156)" fill="#409e52"/>
    <path id="Path_149" data-name="Path 149" d="M104.658,263.148H92.6a.839.839,0,1,0,0,1.678h12.055a.839.839,0,1,0,0-1.678Z" transform="translate(-81.496 -233.156)" fill="#409e52"/>
    <path id="Path_150" data-name="Path 150" d="M66.732,312.815H48a.839.839,0,1,0,0,1.678H66.732a.839.839,0,1,0,0-1.678Z" transform="translate(-41.888 -277.266)" fill="#409e52"/>
    <path id="Path_151" data-name="Path 151" d="M47.165,363.321a.839.839,0,0,0,.839.839H74.294a.839.839,0,1,0,0-1.678H48A.839.839,0,0,0,47.165,363.321Z" transform="translate(-41.888 -321.375)" fill="#409e52"/>
  </g>
</svg>
