<svg xmlns="http://www.w3.org/2000/svg" width="51.572" height="51.572" viewBox="0 0 51.572 51.572">
  <g id="footer-icon2" transform="translate(-2 -2)">
    <path id="Path_152" data-name="Path 152" d="M49.274,7.157h-4.3V5.438a3.438,3.438,0,0,0-6.876,0V7.157H31.224V5.438a3.438,3.438,0,0,0-6.876,0V7.157H17.472V5.438a3.438,3.438,0,0,0-6.876,0V7.157H6.3a4.3,4.3,0,0,0-4.3,4.3V45.836a4.3,4.3,0,0,0,4.3,4.3H30.365a.86.86,0,1,0,0-1.719H6.3a2.586,2.586,0,0,1-2.579-2.579V19.191H51.853V33.8a.86.86,0,0,0,1.719,0V11.455a4.3,4.3,0,0,0-4.3-4.3ZM39.819,5.438a1.719,1.719,0,1,1,3.438,0V10.6a1.719,1.719,0,1,1-3.438,0Zm-13.753,0a1.719,1.719,0,1,1,3.438,0V10.6a1.719,1.719,0,1,1-3.438,0Zm-13.753,0a1.719,1.719,0,0,1,3.438,0V10.6a1.719,1.719,0,0,1-3.438,0ZM51.853,17.472H3.719V11.455A2.586,2.586,0,0,1,6.3,8.876h4.3V10.6a3.438,3.438,0,1,0,6.876,0V8.876h6.876V10.6a3.438,3.438,0,0,0,6.876,0V8.876H38.1V10.6a3.438,3.438,0,1,0,6.876,0V8.876h4.3a2.586,2.586,0,0,1,2.579,2.579Z" transform="translate(0 0)" fill="#409e52"/>
    <path id="Path_153" data-name="Path 153" d="M28.876,28.719A1.719,1.719,0,0,0,27.157,27H23.719A1.719,1.719,0,0,0,22,28.719V31.3a1.719,1.719,0,0,0,1.719,1.719h3.438A1.719,1.719,0,0,0,28.876,31.3ZM23.719,31.3V28.719h3.438V31.3Z" transform="translate(-2.809 -3.512)" fill="#409e52"/>
    <path id="Path_154" data-name="Path 154" d="M16.876,28.719A1.719,1.719,0,0,0,15.157,27H11.719A1.719,1.719,0,0,0,10,28.719V31.3a1.719,1.719,0,0,0,1.719,1.719h3.438A1.719,1.719,0,0,0,16.876,31.3ZM11.719,31.3V28.719h3.438V31.3Z" transform="translate(-1.124 -3.512)" fill="#409e52"/>
    <path id="Path_155" data-name="Path 155" d="M51.157,33.017A1.719,1.719,0,0,0,52.876,31.3V28.719A1.719,1.719,0,0,0,51.157,27H47.719A1.719,1.719,0,0,0,46,28.719V31.3a1.719,1.719,0,0,0,1.719,1.719Zm-3.438-4.3h3.438V31.3H47.719Z" transform="translate(-6.181 -3.512)" fill="#409e52"/>
    <path id="Path_156" data-name="Path 156" d="M28.876,37.719A1.719,1.719,0,0,0,27.157,36H23.719A1.719,1.719,0,0,0,22,37.719V40.3a1.719,1.719,0,0,0,1.719,1.719h3.438A1.719,1.719,0,0,0,28.876,40.3ZM23.719,40.3V37.719h3.438V40.3Z" transform="translate(-2.809 -4.776)" fill="#409e52"/>
    <path id="Path_157" data-name="Path 157" d="M16.876,37.719A1.719,1.719,0,0,0,15.157,36H11.719A1.719,1.719,0,0,0,10,37.719V40.3a1.719,1.719,0,0,0,1.719,1.719h3.438A1.719,1.719,0,0,0,16.876,40.3ZM11.719,40.3V37.719h3.438V40.3Z" transform="translate(-1.124 -4.776)" fill="#409e52"/>
    <path id="Path_158" data-name="Path 158" d="M27.157,45H23.719A1.719,1.719,0,0,0,22,46.719V49.3a1.719,1.719,0,0,0,1.719,1.719h3.438A1.719,1.719,0,0,0,28.876,49.3V46.719A1.719,1.719,0,0,0,27.157,45Zm-3.438,4.3V46.719h3.438V49.3Z" transform="translate(-2.809 -6.04)" fill="#409e52"/>
    <path id="Path_159" data-name="Path 159" d="M35.719,33.017h3.438A1.719,1.719,0,0,0,40.876,31.3V28.719A1.719,1.719,0,0,0,39.157,27H35.719A1.719,1.719,0,0,0,34,28.719V31.3A1.719,1.719,0,0,0,35.719,33.017Zm0-4.3h3.438V31.3H35.719Z" transform="translate(-4.495 -3.512)" fill="#409e52"/>
    <path id="Path_160" data-name="Path 160" d="M34,40.3a1.719,1.719,0,0,0,1.719,1.719.86.86,0,0,0,0-1.719V37.719h3.438a.86.86,0,1,0,0-1.719H35.719A1.719,1.719,0,0,0,34,37.719Z" transform="translate(-4.495 -4.776)" fill="#409e52"/>
    <path id="Path_161" data-name="Path 161" d="M15.157,45H11.719A1.719,1.719,0,0,0,10,46.719V49.3a1.719,1.719,0,0,0,1.719,1.719h3.438A1.719,1.719,0,0,0,16.876,49.3V46.719A1.719,1.719,0,0,0,15.157,45Zm-3.438,4.3V46.719h3.438V49.3Z" transform="translate(-1.124 -6.04)" fill="#409e52"/>
    <path id="Path_162" data-name="Path 162" d="M47.174,36A11.174,11.174,0,1,0,58.348,47.174,11.174,11.174,0,0,0,47.174,36Zm0,20.629a9.455,9.455,0,1,1,9.455-9.455,9.455,9.455,0,0,1-9.455,9.455Z" transform="translate(-4.776 -4.776)" fill="#409e52"/>
    <path id="Path_163" data-name="Path 163" d="M52.949,44.767l-6.685,6.685-3.038-3.039a.859.859,0,1,0-1.215,1.215l3.646,3.647a.86.86,0,0,0,1.215,0l7.293-7.293a.859.859,0,1,0-1.215-1.215Z" transform="translate(-5.585 -5.972)" fill="#409e52"/>
  </g>
</svg>
