<svg xmlns="http://www.w3.org/2000/svg" width="17.445" height="20.877" viewBox="0 0 17.445 20.877">
  <g id="Icon_feather-map-pin" data-name="Icon feather-map-pin" transform="translate(-3.5 -0.5)">
    <path id="Path_53" data-name="Path 53" d="M12.222.5a8.732,8.732,0,0,1,8.722,8.722c0,6.467-7.834,11.764-8.168,11.987a1,1,0,0,1-1.109,0C11.334,20.987,3.5,15.69,3.5,9.222A8.732,8.732,0,0,1,12.222.5Zm0,18.646c1.7-1.273,6.723-5.419,6.723-9.924a6.722,6.722,0,1,0-13.445,0c0,2.773,1.951,5.415,3.587,7.142A25.278,25.278,0,0,0,12.221,19.146Z" transform="translate(0 0)" fill="#409e52"/>
    <path id="Path_54" data-name="Path 54" d="M16.074,9.5A3.574,3.574,0,1,1,12.5,13.074,3.578,3.578,0,0,1,16.074,9.5Zm0,5.148A1.574,1.574,0,1,0,14.5,13.074,1.576,1.576,0,0,0,16.074,14.648Z" transform="translate(-3.852 -3.852)" fill="#409e52"/>
  </g>
</svg>
