<svg xmlns="http://www.w3.org/2000/svg" width="87.623" height="91.333" viewBox="0 0 87.623 91.333">
  <g id="Group_2877" data-name="Group 2877" transform="translate(-114.155 -9.16)" opacity="0.1">
    <path id="Path_265" data-name="Path 265" d="M150.962,24.658a6.213,6.213,0,0,0,.6-.531.748.748,0,0,0,.132-.754,2.062,2.062,0,0,0-1.529-1.385,11.927,11.927,0,0,0-1.587-.257c-1.06-.933-2.337-.737-3.59-.7a2.27,2.27,0,0,1-1.062-.127,4.132,4.132,0,0,0-2.855-.164,22.645,22.645,0,0,1-5.882.467c-.263-.021-.531-.047-.641-.35a1.132,1.132,0,0,1,.229-1.243c.282-.215.607-.368.9-.572a.549.549,0,0,0-.059-.718c-.314-.168-.644-.3-.964-.463s-.384-.444-.178-.631a6.976,6.976,0,0,1,2.768-1.61,2.184,2.184,0,0,0,1.341-.818c.2-.293.48-.178.718-.089a1.5,1.5,0,0,0,1.491-.368c.127-.094.3-.316.265-.408-.316-.841.181-1.561.308-2.331l-.068.074c.986.015,1.973.023,2.957.045.8.017,1.03.2,1.33,1.052a2.311,2.311,0,0,1,.161.514c.134,1.177.952,1.644,1.969,1.891a6.677,6.677,0,0,0,1.064.151,3.388,3.388,0,0,1,1.744.639,10.286,10.286,0,0,0,1.411.788c.319.157.7.406,1,.34.9-.208,1.546.363,2.3.58a6.5,6.5,0,0,0,1.049.231c.117.013.268-.128.372-.231a.262.262,0,0,0-.049-.246c-.508-.359-1.039-.686-1.536-1.058a.466.466,0,0,1-.089-.448c.074-.123.34-.263.435-.217.557.268,1.075.618,1.632.88a.939.939,0,0,0,1.028-.009,3.674,3.674,0,0,1,3.584-.5,2.567,2.567,0,0,0,2.056-.068c.542-.274,1.028.115,1.53.291a.921.921,0,0,0,.977-.274c.127-.127.31-.251.346-.4a1.979,1.979,0,0,1,1.78-1.438,5.161,5.161,0,0,0,3.074-1.474.74.74,0,0,1,.746-.121c1.12.259,1.162.225,1.512-.816a2.124,2.124,0,0,0,.2-.775,1.041,1.041,0,0,0-.351-.652.824.824,0,0,0-1-.07,4.8,4.8,0,0,0-.482.635c-.586.884-1.056.76-1.744.128a14.205,14.205,0,0,1-1.228-1.415.314.314,0,0,1-.008-.259c.026-.079.11-.2.166-.2a17.211,17.211,0,0,1,2.9.1,4.636,4.636,0,0,1,2.649,1.185,3.858,3.858,0,0,0,1.608.962,7.684,7.684,0,0,1,2.9,1.889c.8.712,1.668,1.362,2.534,2a12.013,12.013,0,0,1,3.546,3.616c.435.763,1.213,1.319,1.725,2.046.461.656.665,1.5,1.171,2.109a10.105,10.105,0,0,1,1.818,2.947,6.974,6.974,0,0,0,1.557,2.175,8.164,8.164,0,0,1,1.566,2.488c.316.743.667,1.47.962,2.222a8.121,8.121,0,0,0,1.364,2.29,12.926,12.926,0,0,1,1.9,3.815c.848,2.214.775,4.6,1.523,6.811-.042,1.6.612,3.18.115,4.8a1.977,1.977,0,0,0,.2,1.03,3.593,3.593,0,0,0,.38.712,1.306,1.306,0,0,1,.125,1.272,4.071,4.071,0,0,0,.142,3.875c.161.272-.006.516-.006.771,0,.973.053,1.946.072,2.919a.988.988,0,0,0,.707,1.016.669.669,0,0,1,.453.6,7.4,7.4,0,0,1,.009,1.341,1.029,1.029,0,0,1-.591.843,9.642,9.642,0,0,0-.945.508.787.787,0,0,0-.344.4c-.151.6-.272,1.219-.363,1.835a.764.764,0,0,0,.18.491,1.608,1.608,0,0,1-.059,1.976,20.6,20.6,0,0,0-1.489,3.142.927.927,0,0,0,.127.992A1.94,1.94,0,0,1,198,75.9a1.675,1.675,0,0,1-.221.469,1.8,1.8,0,0,1-.384-.287c-.106-.138-.13-.336-.232-.478a.656.656,0,0,0-.739-.025,3.5,3.5,0,0,0-1.079,3.665c.14.412.52.743.4,1.239a.765.765,0,0,1-.079.253.214.214,0,0,1-.189,0c-.423-.882-1.375-1.105-2.065-1.651a.717.717,0,0,0-1.058.47c-.117.338-.191.692-.285,1.037a.868.868,0,0,1-.771.631,3.684,3.684,0,0,1-1.593.125,1.124,1.124,0,0,0-1.164.48,5.639,5.639,0,0,0-1.366,3.977,3.907,3.907,0,0,1-.2,1.587,2.022,2.022,0,0,1-1.428,1.445,7.272,7.272,0,0,1-2.587.586,3.978,3.978,0,0,0-1.315.236c-2.158.593-4.255,1.375-6.358,2.131a1.925,1.925,0,0,0-.85.614,16.738,16.738,0,0,1-1.833,1.969c-.3.289-.574.414-.93.193a2.77,2.77,0,0,0-1.568-.265.884.884,0,0,0-.771.642c-.145.512-.261,1.033-.429,1.538a.522.522,0,0,1-.865.208.628.628,0,0,1-.151-.217.748.748,0,0,0-1.041-.54,11.492,11.492,0,0,1-2.22.775c-.278.722-.988.678-1.557.9a1.829,1.829,0,0,1-1.3,0,5.663,5.663,0,0,0-3.429-.189,1.255,1.255,0,0,1-1.593-.555,5.673,5.673,0,0,0-1.426-1.2c-.51-.348-1.134-.542-1.6-.933-.4-.333-.593-.9-.973-1.268a6.5,6.5,0,0,0-1.33-.894c-.081-.045-.329.093-.433.206-.557.616-.55.623-.93.382-.227-.145-.453-.293-.684-.433a1.065,1.065,0,0,1-.493-.886c-.147-1.347-.157-1.362-1.536-1.693a2.791,2.791,0,0,1-.971-.408,5.36,5.36,0,0,0-3.586-.9,9.392,9.392,0,0,1-2.415-.138,1.167,1.167,0,0,1-1-1.1l-.06.04a13.2,13.2,0,0,0,4.234-.652c.053-.019.087-.155.094-.238s-.008-.189-.057-.223a2.645,2.645,0,0,0-1.946-.7,3.556,3.556,0,0,1-1.066-.047c-.656-.1-1.213-.34-1.3-1.117a.821.821,0,0,0-.081-.255,1.422,1.422,0,0,0-.973-.863c-2.392-.4-4.65-1.309-7.011-1.818a1.1,1.1,0,0,0-1.141.51c-.089.155-.151.325-.238.482-.128.232-.266.463-.408.688-.125.2-.3.236-.453.076a5.633,5.633,0,0,1-.707-.8,3.068,3.068,0,0,0-2.636-1.589,1.892,1.892,0,0,1-.729-.327.715.715,0,0,1-.193-.935c.179-.2.406-.35.58-.548a.8.8,0,0,0,.089-.992A8.542,8.542,0,0,0,124.6,77.2a1.711,1.711,0,0,1-.555-1.927c.07-.176-.128-.5-.272-.712a7.163,7.163,0,0,0-2.367-1.725.815.815,0,0,1-.476-.858.731.731,0,0,0-.025-.263c-.021-.085-.034-.206-.094-.246-1.043-.7-1-2.084-1.859-2.9-.195-.185-.384-.378-.574-.567l.066.062c.4-.187.822-.344,1.2-.567a1.421,1.421,0,0,0,.062-2.3,8.673,8.673,0,0,0-.954-.455.525.525,0,0,1-.225-.684c.049-.074.076-.174.14-.225,1.16-.92,1.028-1.687.38-2.534a10.559,10.559,0,0,1-1.247-3.235.811.811,0,0,1,.015-.518A1.809,1.809,0,0,0,117.591,56a9.364,9.364,0,0,1-1.111-3.286,10.628,10.628,0,0,0-.433-1.264,5.426,5.426,0,0,1,.127-3.934,3.056,3.056,0,0,0-.043-2.6c-.242-.627-.484-.716-.914-.261-.183.193-.348.406-.531.6-.03.03-.161.025-.172,0a.374.374,0,0,1-.047-.255,10.824,10.824,0,0,0,.9-4.158,1.082,1.082,0,0,1,.1-.523,7.892,7.892,0,0,0,.554-5.47.731.731,0,0,1,.667-.967,2.246,2.246,0,0,0,1.281-.92,8.859,8.859,0,0,0,1.113-2.139c.144-.325.244-.675.637-.8l-.066-.062c.138.616-.338,1.217-.043,1.833a.346.346,0,0,0,.181.166c.079.028.223.043.259,0,.5-.618,1.028-1.224,1.472-1.884a1.593,1.593,0,0,0,.255-1.005,2.49,2.49,0,0,1,1.028-2.333c.741-.639,1.481-1.277,2.233-1.9.276-.23.589-.015.663.44a5.212,5.212,0,0,0,.074.52c.057.2.5.232.676.1.327-.255.272-.633.367-.965.081-.285.476-.5.6-.344.1.127.227.314.2.444a16.453,16.453,0,0,1-.469,1.806.764.764,0,0,1-1.047.521.749.749,0,0,0-.928.31,15.753,15.753,0,0,1-.835,1.358c-.941,1.266-.886,1.311.319,2.356a.575.575,0,0,1,.121.727c-.117.238-.3.448-.395.693a1.429,1.429,0,0,0-.144.769,4.261,4.261,0,0,0,.856,2.207c.421.44.357.824-.172,1.06a1.161,1.161,0,0,0-.76,1.243c0,.076-.085.153-.113.238.064.608.094,1.215.17,1.814a.985.985,0,0,1-.108.741c-.4.586-.786,1.177-1.149,1.782a.764.764,0,0,0-.055.512,1.031,1.031,0,0,0,.264.427c.036.04.17.011.251-.011a1.905,1.905,0,0,0,.981-.848c.51-.72.964-1.481,1.447-2.235A6.67,6.67,0,0,0,124,38.318a3.605,3.605,0,0,0,.508.178c2.076.414,2.165.48,3.429-1.175a6.291,6.291,0,0,1,4.051-2.407,8.541,8.541,0,0,0,3.476-1.345,1.68,1.68,0,0,1,1.525-.28,1.265,1.265,0,0,0,.78,0,4.533,4.533,0,0,0,2.9-2.961,4.729,4.729,0,0,0,.308-2.369,1.482,1.482,0,0,0-.882-1.222.532.532,0,0,1-.283-.4,11.376,11.376,0,0,1,.2-1.328c.042-.24.385-.527.569-.487.7.151,1.406.287,2.1.47a1.409,1.409,0,0,1,.981.85,1.936,1.936,0,0,0,.325.421l-.04-.081a1.022,1.022,0,0,0,.142.21c.6.557.684.54,1.032-.21l-.04.076a1.865,1.865,0,0,1,1.413.215l.14-.117c-.021,0-.051-.015-.062-.006-.045.042-.085.089-.127.132.242-.261.491-.516.72-.788.31-.368.606-.582,1.118-.278a2.035,2.035,0,0,0,1.015.223,1.975,1.975,0,0,0,1.753-1.039Zm34.492-3.187.144-.06-.2.138-.009-.142S185.441,21.494,185.455,21.471ZM128.819,43.206c0-.287,0-.2,0-.108-.021.408.3.627.724.5.087-.025.178-.032.263-.062,1.523-.557,2.617-1.836,4.107-2.456.146-.059.251-.251.338-.4a15.634,15.634,0,0,0,.888-1.653,1.2,1.2,0,0,0-.119-.748c-.057-.157-.223-.274-.34-.41a1.415,1.415,0,0,0-2.292-.272c-.145.1-.251.261-.4.359-.6.393-1.228.735-1.795,1.166-.71.538-.38,1.547-.9,2.194A2.926,2.926,0,0,0,128.819,43.206ZM122.9,34.336a1.814,1.814,0,0,0-.06-.561.586.586,0,0,0-.355-.3.621.621,0,0,0-.474.123,1.645,1.645,0,0,0-.431,1.449.56.56,0,0,0,.448.557.715.715,0,0,0,.78-.533C122.851,34.814,122.869,34.551,122.9,34.336Zm5.855,45.417c.134-.079.387-.164.384-.234a1.061,1.061,0,0,0-.21-.678.965.965,0,0,0-.684-.1c-.087.011-.217.27-.2.395C128.1,79.512,128.4,79.673,128.751,79.752Zm14.244-66.32a.711.711,0,0,0-.854-.4c-.074.023-.178.111-.179.174,0,.155-.008.41.074.45a1.728,1.728,0,0,0,.726.157C142.965,13.811,143.044,13.638,142.995,13.432Zm-23.016,24.5a.978.978,0,0,0,.238-.11,1.292,1.292,0,0,0,.406-1.417c-.019-.081-.072-.2-.132-.214a.326.326,0,0,0-.234.1,1.473,1.473,0,0,0-.423,1.426C119.848,37.8,119.928,37.859,119.979,37.929Zm20.409-17.96c.2-.089.427-.174.637-.287.053-.028.1-.189.077-.221a.518.518,0,0,0-.665-.1c-.113.059-.18.238-.234.376C140.189,19.774,140.3,19.859,140.388,19.969Zm9.01-3.312a1.236,1.236,0,0,0-.159-.457.319.319,0,0,0-.52.28.5.5,0,0,0,.27.355C149.1,16.865,149.26,16.723,149.4,16.657ZM168.426,15.5c-.053-.042-.1-.117-.155-.119s-.179.043-.193.093c-.053.187.045.274.24.21C168.369,15.673,168.39,15.569,168.426,15.5Zm-31.768,4.465c-.051-.062-.091-.151-.157-.181a.436.436,0,0,0-.616.145.2.2,0,0,0,.042.191.445.445,0,0,0,.624.03C136.6,20.114,136.622,20.031,136.658,19.969Zm-17.223,20.9c.138-.206.1-.314-.11-.285-.034.006-.068.142-.066.217C119.259,40.826,119.372,40.846,119.435,40.869Z" transform="translate(0.268 0)" fill="#409e52"/>
    <path id="Path_266" data-name="Path 266" d="M131.674,52.851a12.819,12.819,0,0,1-1.341.087,2.273,2.273,0,0,1-1.028-.219c-1.778-1.047-3.7-1.785-5.534-2.713a1.531,1.531,0,0,1-.588-1.621c.032-.07.144-.164.2-.153.771.14,1.649.021,2.124.892a.7.7,0,0,0,.4.314,8.8,8.8,0,0,0,1.326.24,3.032,3.032,0,0,1,2.587,1.665,3.491,3.491,0,0,0,1.782,1.555Z" transform="translate(7.973 34.748)" fill="#409e52"/>
    <path id="Path_267" data-name="Path 267" d="M115.791,35.093a23.194,23.194,0,0,1-.24,2.579,6.164,6.164,0,0,0,.463,3.915,3.049,3.049,0,0,1-.051,2.054c-.011.064-.142.166-.195.155-.149-.034-.391-.091-.414-.183-.178-.69-.291-1.394-.467-2.086a6.8,6.8,0,0,0-.5-1.5,1.453,1.453,0,0,1,.1-1.714,2.31,2.31,0,0,0,.213-1.289c-.011-.622-.14-1.239-.187-1.861a12.3,12.3,0,0,1,.123-3.731c.013-.059.081-.106.121-.161.115-.153.219-.111.225.125a10.978,10.978,0,0,0,.693,3.119A1.918,1.918,0,0,1,115.791,35.093Z" transform="translate(0 19.581)" fill="#409e52"/>
    <path id="Path_268" data-name="Path 268" d="M120.729,50.543a1.879,1.879,0,0,1-.631-.255,9.01,9.01,0,0,1-.659-.816c-.508-.574-.268-1.137,0-1.7a.589.589,0,0,1,.877-.232A10.733,10.733,0,0,0,122,49.171c.363.221.221.907-.172,1.1a1.062,1.062,0,0,1-.234.111C121.333,50.437,121.074,50.479,120.729,50.543Z" transform="translate(4.434 34.029)" fill="#409e52"/>
    <path id="Path_269" data-name="Path 269" d="M141.181,12.457a8.358,8.358,0,0,1-2.451-.916c-.157-.072-.1-.161.121-.176a2.9,2.9,0,0,1,2.494.637.294.294,0,0,1,.04.259C141.359,12.334,141.261,12.383,141.181,12.457Z" transform="translate(21.778 1.937)" fill="#409e52"/>
    <path id="Path_270" data-name="Path 270" d="M115.653,44.12a6.458,6.458,0,0,1-.136.892c-.017.066-.327.138-.438.081a.956.956,0,0,1-.489-1.1.9.9,0,0,1,.663-.727.283.283,0,0,1,.395.223A4.693,4.693,0,0,1,115.653,44.12Z" transform="translate(0.363 30.319)" fill="#409e52"/>
    <path id="Path_271" data-name="Path 271" d="M119.222,46.731c-.066.059-.123.144-.2.168a.957.957,0,0,1-1.16-.384.368.368,0,0,1-.045-.257.288.288,0,0,1,.408-.24,8.168,8.168,0,0,1,.935.47C119.21,46.518,119.2,46.648,119.222,46.731Z" transform="translate(3.25 32.757)" fill="#409e52"/>
    <path id="Path_272" data-name="Path 272" d="M117.994,44.916c-.52-.032-.727-.391-.848-.828-.019-.072.011-.215.051-.229.138-.047.325-.117.429-.059a.882.882,0,0,1,.361,1.117Z" transform="translate(2.655 30.789)" fill="#409e52"/>
    <path id="Path_273" data-name="Path 273" d="M160.5,35.944l.066-.052-.011.26Z" transform="translate(41.215 23.774)" fill="#409e52"/>
    <path id="Path_274" data-name="Path 274" d="M117.271,20.742a3.429,3.429,0,0,1,0-.521.683.683,0,0,1,.414-.606.26.26,0,0,1,.227.045c.2.2.13.518-.236.888-.1.1-.312.093-.474.132Z" transform="translate(2.713 9.289)" fill="#409e52"/>
    <path id="Path_275" data-name="Path 275" d="M135.607,57.37c.408-.059.814-.13,1.222-.161a1.2,1.2,0,0,1,.115.433c0,.034-.14.132-.189.117-.385-.123-.765-.266-1.147-.4Z" transform="translate(19.079 42.733)" fill="#409e52"/>
    <path id="Path_276" data-name="Path 276" d="M114.7,29.892c.015.234-.072.35-.24.295-.042-.015-.057-.153-.057-.234,0-.225.094-.344.249-.3C114.691,29.664,114.688,29.809,114.7,29.892Z" transform="translate(0.223 18.217)" fill="#409e52"/>
    <path id="Path_277" data-name="Path 277" d="M117.588,44.559c.416-.128.831-.263,1.251-.376.034-.009.128.11.149.181.015.053-.045.181-.076.183-.438.011-.877.009-1.315.009Z" transform="translate(3.053 31.148)" fill="#409e52"/>
    <path id="Path_278" data-name="Path 278" d="M135.608,57.915c.006-.423.009-.846.026-1.27,0-.026.132-.074.195-.064s.17.094.164.119c-.119.408-.251.811-.384,1.222Z" transform="translate(19.08 42.174)" fill="#409e52"/>
    <path id="Path_279" data-name="Path 279" d="M130.1,18.392c.557-.51.557-.51,1.094-.006l.04-.076h-1.173Z" transform="translate(14.146 7.87)" fill="#409e52"/>
    <path id="Path_280" data-name="Path 280" d="M118.161,47.856l-.148-.08.163-.043Z" transform="translate(3.431 34.305)" fill="#409e52"/>
    <path id="Path_281" data-name="Path 281" d="M136.364,11.962l.108.062c-.006-.161-.025-.162-.055,0Z" transform="translate(19.752 2.439)" fill="#409e52"/>
    <path id="Path_282" data-name="Path 282" d="M133.859,17.351l-.049-.04-.031.1Z" transform="translate(17.453 7.249)" fill="#409e52"/>
    <path id="Path_283" data-name="Path 283" d="M116.531,40.359l.123-.114-.053.176Z" transform="translate(2.113 27.646)" fill="#409e52"/>
  </g>
</svg>
