<svg xmlns="http://www.w3.org/2000/svg" width="19.535" height="19.57" viewBox="0 0 19.535 19.57">
  <g transform="translate(-1208.001 -788.252)">
    <path id="Icon_feather-phone" data-name="Icon feather-phone" d="M20.7,16.154V18.8a1.763,1.763,0,0,1-1.922,1.763,17.448,17.448,0,0,1-7.609-2.707,17.193,17.193,0,0,1-5.29-5.29A17.448,17.448,0,0,1,3.175,4.922,1.763,1.763,0,0,1,4.93,3H7.575A1.763,1.763,0,0,1,9.338,4.516a11.321,11.321,0,0,0,.617,2.477,1.763,1.763,0,0,1-.4,1.86l-1.12,1.12a14.107,14.107,0,0,0,5.29,5.29l1.12-1.12a1.763,1.763,0,0,1,1.86-.4,11.32,11.32,0,0,0,2.477.617,1.763,1.763,0,0,1,1.516,1.79Z" transform="translate(1205.833 786.253)" fill="rgba(0,0,0,0)"/>
    <path id="Icon_feather-phone_-_Outline" data-name="Icon feather-phone - Outline" d="M18.939,21.57c-.083,0-.166,0-.249-.011l-.018,0a18.538,18.538,0,0,1-8.041-2.86A18.311,18.311,0,0,1,5.04,13.107a18.536,18.536,0,0,1-2.86-8.079l0-.016A2.763,2.763,0,0,1,4.929,2H7.592a2.776,2.776,0,0,1,2.736,2.377v.009a10.336,10.336,0,0,0,.563,2.259,2.77,2.77,0,0,1-.623,2.913l0,0-.565.565A13.115,13.115,0,0,0,13.576,14l.565-.565,0,0a2.763,2.763,0,0,1,2.915-.622,10.331,10.331,0,0,0,2.256.562h.009A2.763,2.763,0,0,1,21.7,16.165V18.8a2.763,2.763,0,0,1-2.763,2.771Zm-.062-2,.061,0A.763.763,0,0,0,19.7,18.8V16.154q0-.012,0-.025a.763.763,0,0,0-.654-.774,12.339,12.339,0,0,1-2.69-.671.763.763,0,0,0-.806.169l-1.118,1.118a1,1,0,0,1-1.2.162,15.114,15.114,0,0,1-5.665-5.665,1,1,0,0,1,.162-1.2L8.849,8.149a.765.765,0,0,0,.17-.8,12.344,12.344,0,0,1-.672-2.692A.767.767,0,0,0,7.592,4H4.929a.763.763,0,0,0-.759.826,16.528,16.528,0,0,0,2.551,7.2l0,.007a16.3,16.3,0,0,0,4.982,4.982l.008,0A16.529,16.529,0,0,0,18.878,19.567Z" transform="translate(1205.833 786.253)" fill="#409e52"/>
  </g>
</svg>
