<svg xmlns="http://www.w3.org/2000/svg" width="57.299" height="70.376" viewBox="0 0 57.299 70.376">
  <g id="icon3" transform="translate(-47.568)">
    <g id="Group_2847" data-name="Group 2847" transform="translate(47.568 0)">
      <path id="Path_123" data-name="Path 123" d="M103.26,58.153h-.767c.642-2.849-.336-5.495-3.113-8.592a1.031,1.031,0,0,0-.743-.342,1.045,1.045,0,0,0-.758.307,12.814,12.814,0,0,1-3.242,2.429,10.888,10.888,0,0,0-5.6-6.558c-.917-.39-1.859-.738-2.792-1.05-.042-.017-6.054-1.711-6.054-1.711l-.021-.006V38.341a21.391,21.391,0,0,0,6.438-7.1,20.868,20.868,0,0,0,1.6-4.221,4.845,4.845,0,0,0,2.709-1.035,6.086,6.086,0,0,0,2.118-6.213,2.823,2.823,0,0,0-2.8-1.986l-1.475,0c0-1.175,0-2.074,0-2.074a15.475,15.475,0,0,0-1.631-6.946,1.031,1.031,0,1,0-1.846.918A13.43,13.43,0,0,1,86.7,15.7V17.74a20.911,20.911,0,0,1-12.93-6.1,1.031,1.031,0,0,0-1.448,0,20.937,20.937,0,0,1-12.911,6.1V15.7A13.629,13.629,0,0,1,82.489,5.87a1.031,1.031,0,1,0,1.427-1.488A15.69,15.69,0,0,0,57.349,15.7s0,.9-.005,2.074l-1.488,0a2.825,2.825,0,0,0-2.8,1.985,6.088,6.088,0,0,0,2.116,6.215,4.829,4.829,0,0,0,2.383,1A12.063,12.063,0,0,1,55.4,32.192c-1.5,2.343-2.91,4.555-.392,9.611a6.726,6.726,0,0,1,.961,4.079c-4.993,2.367-7.644,5.554-7.878,9.48,0,.007,0,.013,0,.02l-.514,12.6a2.293,2.293,0,0,0,.483,1.8,2.39,2.39,0,0,0,1.833.6H98.476a1.031,1.031,0,0,0,.419-.089,10.039,10.039,0,0,0,5.973-9.155V59.76a1.61,1.61,0,0,0-1.608-1.608ZM88.737,23.165c.009-.169.015-1.7.019-3.325l1.473,0a.788.788,0,0,1,.856.6,4.062,4.062,0,0,1-1.445,3.922,2.743,2.743,0,0,1-1.018.5A13.874,13.874,0,0,0,88.737,23.165Zm-32.291,1.2A4.064,4.064,0,0,1,55,20.441a.789.789,0,0,1,.858-.6l1.478,0c0,1.629,0,3.156.009,3.325a13.807,13.807,0,0,0,.116,1.7,2.752,2.752,0,0,1-1.018-.5Zm30.44,22.4c.452.169.9.346,1.347.535a8.832,8.832,0,0,1,4.488,5.438,18.415,18.415,0,0,1-5.6.6h-.232V46.758Zm.225,8.632c3.109.011,7.3.025,11.423-3.646,1.923,2.375,2.464,4.276,1.829,6.408H82.453c.155-1.585.657-2.082,1.05-2.317A7.946,7.946,0,0,1,87.112,55.39Zm-3.361-9.667-6.859,5.749-2.418-3.547,4.891-3.4C79.462,44.567,82.454,45.343,83.751,45.723ZM68.992,43.595a20.039,20.039,0,0,0,.3-3.332,9.2,9.2,0,0,0,3.5.8H73.3a10.54,10.54,0,0,0,4.81-1.437c0,1.447,0,3.223,0,3.254l-5.073,3.524Zm2.625,4.331L69.2,51.474l-2.674-2.241a11.308,11.308,0,0,0,1.921-3.509Zm1.428-34.134A22.835,22.835,0,0,0,86.7,19.806c0,.3,0,2.949-.02,3.266,0,.021,0,.041,0,.062a16.618,16.618,0,0,1-1.9,7.17,18.852,18.852,0,0,1-5.406,6.063c-.255.19-.511.369-.765.541q-.04.025-.077.053A10.872,10.872,0,0,1,73.48,39c-.131.006-.692.006-.8,0a11.81,11.81,0,0,1-5.963-2.635,18.851,18.851,0,0,1-5.406-6.063,16.617,16.617,0,0,1-1.9-7.17c0-.021,0-.041,0-.062-.019-.317-.02-2.963-.02-3.266a22.853,22.853,0,0,0,13.656-6.014ZM57.139,33.3A17.428,17.428,0,0,0,58.9,30c.179.417.37.831.576,1.237a21.82,21.82,0,0,0,7.755,7.967c0,.01,0,.019,0,.029,0,.182,0,.387,0,.617.02,4.239-1.048,7.153-3.36,9.168a18.253,18.253,0,0,1-6.792,3.255c.075-.438.145-.851.212-1.241,1-5.847,1.184-6.9-.438-10.151-2-4.01-1.09-5.43.284-7.581ZM54.777,61.369v6.945H49.894c-.112,0-.2,0-.263-.008,0-.054,0-.123.007-.209v-.019l.514-12.6c.174-2.851,1.979-5.193,5.5-7.121-.108.669-.239,1.436-.393,2.33-.145.843-.307,1.791-.486,2.868a1.031,1.031,0,0,0,1.3,1.161q.817-.23,1.62-.47v4.685h-.473a2.445,2.445,0,0,0-2.441,2.442Zm2.062,6.945V61.369a.385.385,0,0,1,.38-.38h10.1a1.031,1.031,0,0,0,0-2.062H59.753V53.569A17.091,17.091,0,0,0,65.069,50.7l2.99,2.506a1.59,1.59,0,0,0,2.654-.3l2.331-3.419,2.331,3.418c.767,1.127,1.688,1.105,2.652.3l6.8-5.7v5.875a5.509,5.509,0,0,0-2.378.677c-1.232.735-1.9,2.048-2.061,4.087h-.967a1.606,1.606,0,0,0-1.373.775H72.078a1.031,1.031,0,1,0,0,2.062h5.733v.142a10.008,10.008,0,0,0,3.053,7.183Zm45.967-7.183a7.973,7.973,0,0,1-4.556,7.183H84.429a7.973,7.973,0,0,1-4.556-7.183v-.917h22.932v.917Z" transform="translate(-47.568 0)" fill="#409e52"/>
      <path id="Path_124" data-name="Path 124" d="M169.633,165.2a3.374,3.374,0,0,1,2.446,0,1.031,1.031,0,1,0,.887-1.861,5.384,5.384,0,0,0-4.224,0,1.031,1.031,0,1,0,.89,1.86Z" transform="translate(-151.581 -140.518)" fill="#409e52"/>
      <path id="Path_125" data-name="Path 125" d="M259.413,163.348a1.026,1.026,0,0,0,.443-.1,3.375,3.375,0,0,1,2.446,0,1.031,1.031,0,0,0,.891-1.86,5.384,5.384,0,0,0-4.224,0,1.031,1.031,0,0,0,.444,1.962Z" transform="translate(-229.404 -138.831)" fill="#409e52"/>
      <path id="Path_126" data-name="Path 126" d="M211.287,231.373a4.232,4.232,0,0,0,3.184-1.467,1.031,1.031,0,0,0-1.54-1.371,2.127,2.127,0,0,1-3.288,0,1.031,1.031,0,0,0-1.54,1.371A4.231,4.231,0,0,0,211.287,231.373Z" transform="translate(-185.813 -196.824)" fill="#409e52"/>
    </g>
  </g>
</svg>
