<svg xmlns="http://www.w3.org/2000/svg" width="51.526" height="70.376" viewBox="0 0 51.526 70.376">
  <g id="icon1" transform="translate(-68.571)">
    <path id="Path_122" data-name="Path 122" d="M76.578,59.248a17.635,17.635,0,0,1,2.626,3.5,6.987,6.987,0,0,1,.986,3.273,4.358,4.358,0,1,1-8.716,0,6.979,6.979,0,0,1,.982-3.273,17.924,17.924,0,0,1,2.626-3.5A1.025,1.025,0,0,1,76.578,59.248Zm34.269-42.572a1.031,1.031,0,0,1,0-2.061h2.24v-1.94h-2.24a1.031,1.031,0,0,1,0-2.061h2.24v-.541a1.164,1.164,0,0,0-1.157-1.157H97.755a1.142,1.142,0,0,0-.814.339,1.155,1.155,0,0,0-.343.818v.541h2.237a1.031,1.031,0,1,1,0,2.061H96.6v1.94h2.237a1.031,1.031,0,1,1,0,2.061H96.6v1.7h16.489v-1.7Zm-2.112,32.266-2.864,2.864v4.177a1.031,1.031,0,1,1-2.061,0V51.806l-2.864-2.864a6,6,0,0,1-2.525-.284,7.062,7.062,0,0,1-4.43-4.43,5.917,5.917,0,0,1-.195-3.1,1.023,1.023,0,0,1,.818-.795,5.9,5.9,0,0,1,3.074.2,7.067,7.067,0,0,1,4.43,4.426,6.017,6.017,0,0,1,.284,2.529l1.407,1.407V41.96a5.987,5.987,0,0,1-1.582-1.987,7.057,7.057,0,0,1,0-6.262,5.907,5.907,0,0,1,2.057-2.334,1.031,1.031,0,0,1,1.138.016,5.978,5.978,0,0,1,2.034,2.318,7.057,7.057,0,0,1,0,6.262,6.046,6.046,0,0,1-1.586,1.987v6.932l1.407-1.407a6.146,6.146,0,0,1,.284-2.529,7.067,7.067,0,0,1,4.43-4.426,5.906,5.906,0,0,1,3.078-.2,1.033,1.033,0,0,1,.818.795,5.957,5.957,0,0,1-.195,3.1,7.086,7.086,0,0,1-4.43,4.43,6.01,6.01,0,0,1-2.529.285Zm.573-2.026a4.226,4.226,0,0,0,1.313-.214,5.045,5.045,0,0,0,3.117-3.117,4.226,4.226,0,0,0,.214-1.313,4.09,4.09,0,0,0-1.313.214,5.021,5.021,0,0,0-3.117,3.117,4.088,4.088,0,0,0-.214,1.313ZM99.064,46.7a4.19,4.19,0,0,0,1.313.214,4.191,4.191,0,0,0-.214-1.313,5.044,5.044,0,0,0-3.117-3.117,4.117,4.117,0,0,0-1.313-.214,4.116,4.116,0,0,0,.214,1.313A5.044,5.044,0,0,0,99.064,46.7Zm5-7.657a4.091,4.091,0,0,0,.779,1.083,4.275,4.275,0,0,0,.779-1.083,5.045,5.045,0,0,0,0-4.407,4.271,4.271,0,0,0-.779-1.083,4.09,4.09,0,0,0-.779,1.083,5.045,5.045,0,0,0,0,4.407ZM80.942,17.927a3.179,3.179,0,0,1,0,6.012V44.633a5.057,5.057,0,0,1-.647,2.474,5.143,5.143,0,0,1-1.286,1.52v4.882a3.179,3.179,0,0,1-6.359,0V48.627a5.251,5.251,0,0,1-1.286-1.52,5.1,5.1,0,0,1-.647-2.474V36.193a1.031,1.031,0,1,1,2.061,0v8.439a3.013,3.013,0,0,0,.382,1.473,3.093,3.093,0,0,0,1.068,1.118,1.033,1.033,0,0,1,.487.873v5.412a1.11,1.11,0,0,0,1.9.787,1.1,1.1,0,0,0,.331-.787V48.1a1.037,1.037,0,0,1,.53-.9A3.066,3.066,0,0,0,78.5,46.106a3.011,3.011,0,0,0,.382-1.473V24.115h-6.1v7.407a1.031,1.031,0,1,1-2.061,0V23.939a3.181,3.181,0,0,1,0-6.012V5.112a5.112,5.112,0,0,1,10.224,0V8.7a1.031,1.031,0,1,1-2.061,0V5.112a3.051,3.051,0,0,0-6.1,0V17.756h6.1V13.368a1.031,1.031,0,1,1,2.061,0Zm-9.192,1.89a1.107,1.107,0,0,0-.787.327,1.105,1.105,0,0,0,0,1.578,1.108,1.108,0,0,0,.787.327h8.163a1.116,1.116,0,0,0,0-2.233Zm43.4-9.745v8.72A9.926,9.926,0,0,1,118.6,22.1a9.737,9.737,0,0,1,1.5,5.182v4.329a1.031,1.031,0,0,1-2.061,0v-3.3H91.649V59.357h26.386V36.283a1.031,1.031,0,1,1,2.061,0V67.158a3.219,3.219,0,0,1-3.218,3.218H92.806a3.219,3.219,0,0,1-3.218-3.218V27.286a9.693,9.693,0,0,1,1.5-5.182,9.859,9.859,0,0,1,3.452-3.312v-8.72a3.219,3.219,0,0,1,3.218-3.218H111.93a3.226,3.226,0,0,1,3.218,3.218Zm2.887,51.346H91.649v5.739a1.158,1.158,0,0,0,1.157,1.157h24.072a1.164,1.164,0,0,0,1.157-1.157ZM91.715,26.254h26.25a7.58,7.58,0,0,0-1.107-3.051,7.784,7.784,0,0,0-2.981-2.763H95.807A7.822,7.822,0,0,0,92.822,23.2a7.7,7.7,0,0,0-1.107,3.051ZM77.4,63.737A13.923,13.923,0,0,0,75.83,61.5a14.184,14.184,0,0,0-1.57,2.237,5,5,0,0,0-.725,2.283,2.3,2.3,0,0,0,4.594,0A5.016,5.016,0,0,0,77.4,63.737Z" fill="#409e52"/>
  </g>
</svg>
