<svg xmlns="http://www.w3.org/2000/svg" width="22.295" height="18.236" viewBox="0 0 22.295 18.236">
  <g id="Icon_feather-mail" data-name="Icon feather-mail" transform="translate(-2 -5)">
    <path id="Path_51" data-name="Path 51" d="M5.029,5H21.265a3.033,3.033,0,0,1,3.029,3.029V20.206a3.033,3.033,0,0,1-3.029,3.029H5.029A3.033,3.033,0,0,1,2,20.206V8.029A3.033,3.033,0,0,1,5.029,5ZM21.265,21.236a1.031,1.031,0,0,0,1.029-1.029V8.029A1.031,1.031,0,0,0,21.265,7H5.029A1.031,1.031,0,0,0,4,8.029V20.206a1.031,1.031,0,0,0,1.029,1.029Z" transform="translate(0 0)" fill="#409e52"/>
    <path id="Path_52" data-name="Path 52" d="M13.147,17.1a1,1,0,0,1-.573-.181L2.427,9.819A1,1,0,0,1,3.573,8.181l9.574,6.7,9.574-6.7a1,1,0,1,1,1.147,1.638l-10.147,7.1A1,1,0,0,1,13.147,17.1Z" transform="translate(0 -0.971)" fill="#409e52"/>
  </g>
</svg>
