<svg xmlns="http://www.w3.org/2000/svg" width="70.546" height="70.376" viewBox="0 0 70.546 70.376">
  <g id="icon4" transform="translate(0 -0.617)">
    <path id="Path_134" data-name="Path 134" d="M266.029,332.231A1.034,1.034,0,0,0,265,333.265v9.043a5.986,5.986,0,0,1-5.979,5.979h-4.492a1.034,1.034,0,0,0,0,2.068h4.492a8.056,8.056,0,0,0,8.047-8.047v-9.043A1.034,1.034,0,0,0,266.029,332.231Z" transform="translate(-218.549 -285.903)" fill="#409e52"/>
    <path id="Path_135" data-name="Path 135" d="M31.57,215.888H20.5a2.494,2.494,0,0,0-1.6.581l-6.063,5.079v-4.027a1.635,1.635,0,0,0-1.633-1.633H8.046a5.985,5.985,0,0,1-5.979-5.979v-23.2a5.986,5.986,0,0,1,5.979-5.979H24.053a1.034,1.034,0,0,0,0-2.068H8.047A8.056,8.056,0,0,0,0,186.711v23.2a8.056,8.056,0,0,0,8.047,8.047h2.72V223.2a1.3,1.3,0,0,0,2.126.992l7.332-6.142a.423.423,0,0,1,.271-.1H31.57a1.034,1.034,0,1,0,0-2.068Z" transform="translate(0 -153.505)" fill="#409e52"/>
    <path id="Path_136" data-name="Path 136" d="M232.2,7A21.693,21.693,0,0,0,216.768.617h-.022a21.852,21.852,0,0,0-20.925,28.031,1.034,1.034,0,1,0,1.983-.585A19.816,19.816,0,0,1,216.748,2.685h.02a19.771,19.771,0,1,1-5.954,38.628,2.83,2.83,0,0,0-2.743.6l-4.217,3.826V38.667a2.854,2.854,0,0,0-.865-2.034,19.821,19.821,0,0,1-3.579-4.707,1.034,1.034,0,1,0-1.814.992,21.891,21.891,0,0,0,3.952,5.2.765.765,0,0,1,.238.551v7.614a1.807,1.807,0,0,0,1.088,1.673,1.843,1.843,0,0,0,.748.16,1.812,1.812,0,0,0,1.222-.478l4.615-4.188a.755.755,0,0,1,.731-.163A21.841,21.841,0,0,0,232.2,7Z" transform="translate(-168.06)" fill="#409e52"/>
    <path id="Path_137" data-name="Path 137" d="M333.02,230.272a3.532,3.532,0,1,0,3.532,3.532A3.536,3.536,0,0,0,333.02,230.272Zm0,5a1.464,1.464,0,1,1,1.464-1.464A1.466,1.466,0,0,1,333.02,235.268Z" transform="translate(-284.07 -197.998)" fill="#409e52"/>
    <path id="Path_138" data-name="Path 138" d="M300.288,52.826a10.067,10.067,0,1,0-18.168-5.97,3.1,3.1,0,0,0,6.2,0,3.93,3.93,0,0,1,.037-.542A3.833,3.833,0,0,1,292.076,43a1.034,1.034,0,0,0-.025-2.067h-.026a5.894,5.894,0,0,0-5.712,5.1,6.015,6.015,0,0,0-.057.828,1.034,1.034,0,1,1-2.068,0,8.1,8.1,0,0,1,.077-1.113,7.995,7.995,0,1,1,9.75,8.9,1.034,1.034,0,0,0-.8,1.007v3.242a1.034,1.034,0,1,1-2.068,0V54.711a1.984,1.984,0,0,1,1.745-1.972,5.917,5.917,0,0,0,5.2-6.354,5.834,5.834,0,0,0-1.237-3.153,1.034,1.034,0,0,0-1.629,1.274,3.775,3.775,0,0,1,.8,2.037,3.854,3.854,0,0,1-3.38,4.142,4.053,4.053,0,0,0-3.567,4.025v4.177a3.1,3.1,0,0,0,6.2,0V56.431a10.037,10.037,0,0,0,5.005-3.606Z" transform="translate(-243.231 -31.19)" fill="#409e52"/>
    <path id="Path_139" data-name="Path 139" d="M48.2,265.216H49.3a1.034,1.034,0,1,0,0-2.068H48.2a1.034,1.034,0,1,0,0,2.068Z" transform="translate(-40.664 -226.343)" fill="#409e52"/>
    <path id="Path_140" data-name="Path 140" d="M107.649,263.148H92.8a1.034,1.034,0,1,0,0,2.068h14.851a1.034,1.034,0,1,0,0-2.068Z" transform="translate(-79.115 -226.343)" fill="#409e52"/>
    <path id="Path_141" data-name="Path 141" d="M71.27,312.815H48.2a1.034,1.034,0,1,0,0,2.068H71.27a1.034,1.034,0,1,0,0-2.068Z" transform="translate(-40.664 -269.163)" fill="#409e52"/>
    <path id="Path_142" data-name="Path 142" d="M47.165,363.516A1.034,1.034,0,0,0,48.2,364.55H80.586a1.034,1.034,0,1,0,0-2.068H48.2a1.034,1.034,0,0,0-1.034,1.034Z" transform="translate(-40.664 -311.984)" fill="#409e52"/>
  </g>
</svg>
