<svg xmlns="http://www.w3.org/2000/svg" width="61.416" height="70.376" viewBox="0 0 61.416 70.376">
  <g id="icon2" transform="translate(-32.594 -0.001)">
    <g id="Group_2849" data-name="Group 2849" transform="translate(32.594 0.001)">
      <g id="Group_2848" data-name="Group 2848" transform="translate(0 0)">
        <path id="Path_127" data-name="Path 127" d="M340.979,368.431a1.029,1.029,0,0,0-1.84,0c-.12.239-2.945,5.9-3.4,9.323a5.586,5.586,0,0,0,1.25,4.227,3.96,3.96,0,0,0,6.135,0,5.585,5.585,0,0,0,1.25-4.227C343.924,374.332,341.1,368.67,340.979,368.431Zm.579,12.215a1.89,1.89,0,0,1-3,0,3.515,3.515,0,0,1-.777-2.623,29.373,29.373,0,0,1,2.276-6.7,29.378,29.378,0,0,1,2.276,6.7A3.514,3.514,0,0,1,341.558,380.646Z" transform="translate(-294.036 -317.299)" fill="#409e52"/>
        <path id="Path_128" data-name="Path 128" d="M84.709,12.681a1.029,1.029,0,0,0,1.156-.885,11.363,11.363,0,0,1,6.023-8.281,16.352,16.352,0,0,1,14.617.577,15.687,15.687,0,0,1,6.263,5.471,10.344,10.344,0,0,1,1.166,3.387,1.029,1.029,0,1,0,2.023-.382A12.344,12.344,0,0,0,114.531,8.5a17.476,17.476,0,0,0-7.068-6.23,18.417,18.417,0,0,0-16.47-.607,13.344,13.344,0,0,0-7.168,9.864,1.03,1.03,0,0,0,.885,1.156Z" transform="translate(-76.775 -0.001)" fill="#409e52"/>
        <path id="Path_129" data-name="Path 129" d="M166.537,413.134a1.03,1.03,0,0,0,0,1.456,5.045,5.045,0,0,0,7.135,0,1.03,1.03,0,1,0-1.456-1.456,2.986,2.986,0,0,1-4.223,0A1.03,1.03,0,0,0,166.537,413.134Z" transform="translate(-147.866 -356.087)" fill="#409e52"/>
        <path id="Path_130" data-name="Path 130" d="M180.026,356.788a1.03,1.03,0,0,0-1.456-1.456,1.282,1.282,0,0,1-1.814,0,1.03,1.03,0,0,0-1.456,1.456,3.341,3.341,0,0,0,4.726,0Z" transform="translate(-155.425 -306.23)" fill="#409e52"/>
        <path id="Path_131" data-name="Path 131" d="M100.024,290.8a1.03,1.03,0,0,0-1.456,0,4.392,4.392,0,0,1-6.211,0,1.03,1.03,0,0,0-1.456,1.456,6.547,6.547,0,0,0,.767.656l-.628,1.169a1.03,1.03,0,1,0,1.814.975l.652-1.212a6.408,6.408,0,0,0,.928.22v1.2a1.03,1.03,0,1,0,2.059,0v-1.2a6.408,6.408,0,0,0,.928-.22l.652,1.212a1.03,1.03,0,0,0,1.814-.975l-.628-1.169a6.535,6.535,0,0,0,.767-.656,1.03,1.03,0,0,0,0-1.456Z" transform="translate(-82.626 -250.568)" fill="#409e52"/>
        <path id="Path_132" data-name="Path 132" d="M236.832,290.8a1.03,1.03,0,0,0-1.456,0,4.392,4.392,0,0,1-6.211,0,1.03,1.03,0,0,0-1.456,1.456,6.523,6.523,0,0,0,.767.656l-.628,1.169a1.03,1.03,0,1,0,1.814.975l.652-1.212a6.408,6.408,0,0,0,.928.22v1.2a1.03,1.03,0,1,0,2.059,0v-1.2a6.405,6.405,0,0,0,.928-.22l.652,1.212a1.03,1.03,0,0,0,1.814-.975l-.628-1.169a6.523,6.523,0,0,0,.767-.656A1.029,1.029,0,0,0,236.832,290.8Z" transform="translate(-200.63 -250.567)" fill="#409e52"/>
        <path id="Path_133" data-name="Path 133" d="M93.034,60.448a3.337,3.337,0,0,0-4.72,0L84.1,64.66l-1.013-1.013a1.4,1.4,0,0,0-1.983,0l-2.229,2.229a1.4,1.4,0,0,0,0,1.983l1.2,1.2-5.027,5.027c-.063-1.183-.159-2.344-.266-3.463l-.06-.658.665-1.394a18.324,18.324,0,0,0-.946-17.206c-3.08-4.936-8.232-7.78-13.015-10.77-3.1-1.939-6.615-4.137-10.508-3.666a7.676,7.676,0,0,0-6.641,6.474A29.455,29.455,0,0,0,38.4,47.7,18.057,18.057,0,0,0,34.3,68.577l.637,1.336-.065.712c-.405,4.272-.717,9.209.712,13.748a1.029,1.029,0,1,0,1.964-.619c-1.314-4.171-1.012-8.864-.626-12.938L37,69.98c.2-.485.375-.985.543-1.47a7.594,7.594,0,0,1,1.72-3.27,26.342,26.342,0,0,1,6.209-3.714,56.087,56.087,0,0,0,9.243-5.285c1.881,1.186,3.669,2.24,5.441,3.208a1.03,1.03,0,1,0,.987-1.807A114.008,114.008,0,0,1,50.89,51.235c-2.638-1.823-4.145-3.284-4.554-5.785a5.606,5.606,0,0,1,4.836-6.472c3.172-.382,6.358,1.61,9.17,3.368,4.5,2.811,9.455,5.46,12.359,10.114a16.242,16.242,0,0,1,1.121,14.591A7.85,7.85,0,0,0,71.8,63.7a27.194,27.194,0,0,0-6.494-3.94,1.03,1.03,0,1,0-.893,1.855,25.612,25.612,0,0,1,6.016,3.621,7.593,7.593,0,0,1,1.72,3.27c.156.451.318.913.5,1.366l.086.943c.16,1.683.3,3.462.324,5.263l-9.994,9.995a3.046,3.046,0,0,0-.9,2.168A3.112,3.112,0,0,0,67.4,90.413L70.517,87.3a33.251,33.251,0,0,1-11.1,10.984,12.105,12.105,0,0,1-4.56,1.833h-.026c-1.114.011-3.346-1.067-4.572-1.833A34.276,34.276,0,0,1,39.5,87.913,1.03,1.03,0,0,0,37.745,89a36.394,36.394,0,0,0,11.418,11.034c.141.088,3.462,2.146,5.653,2.146h.033c2.191,0,5.512-2.058,5.653-2.146,6.23-3.89,11.153-9.312,13.169-14.5a18.929,18.929,0,0,0,.658-2.039L84.418,73.4l1.2,1.2a1.4,1.4,0,0,0,1.983,0l2.229-2.229a1.4,1.4,0,0,0,0-1.983L88.821,69.38l4.213-4.213a3.341,3.341,0,0,0,0-4.72ZM49.719,52.929c1.086.75,2.128,1.452,3.139,2.115a55.306,55.306,0,0,1-7.869,4.431l-.407.2A27.878,27.878,0,0,0,37.9,63.7a7.852,7.852,0,0,0-2.02,3.349A15.775,15.775,0,0,1,39.18,49.8a27.477,27.477,0,0,1,5.125-4C44.887,49.328,47.3,51.257,49.719,52.929Zm16.23,36.028a1.007,1.007,0,1,1-1.424-1.424L81.538,70.52l1.424,1.424ZM86.614,72.684,80.8,66.868l1.3-1.3,5.816,5.816Zm4.964-8.973-4.213,4.213-1.808-1.808L89.771,61.9a1.278,1.278,0,0,1,1.808,1.807Z" transform="translate(-32.594 -31.802)" fill="#409e52"/>
      </g>
    </g>
  </g>
</svg>
