<svg xmlns="http://www.w3.org/2000/svg" width="186.905" height="115.506" viewBox="0 0 186.905 115.506">
  <g id="logo" transform="translate(-59 644)">
    <path id="Path_85" data-name="Path 85" d="M74.52,298.1,70.9,316.922,67.287,298.1H64.209L64,322.484h2.38l-.027-18.341,3.508,18.341h2.116l3.523-18.4.027,18.4h2.314L77.6,298.1Z" transform="translate(-5 -851.362)" fill="#282828"/>
    <path id="Path_86" data-name="Path 86" d="M107.8,322.484h9.074v-2.209h-6.733V310.86H115.7v-2.174h-5.562v-8.376h6.768V298.1H107.8Z" transform="translate(-31.823 -851.362)" fill="#282828"/>
    <path id="Path_87" data-name="Path 87" d="M141,298.1H138.59v24.38h3.488a8.385,8.385,0,0,0,1.938-.209,6.1,6.1,0,0,0,2.5-1.287c1.8-1.55,2.081-3.616,2.2-5.454.035-.744.035-1.419.035-2.128v-5.264c0-3.934-.26-6.248-1.694-7.977C145.454,298.259,143.187,298.1,141,298.1Zm4.651,4.19c.775,1.488.775,4.527.775,5.814v5.426c0,3.523-.454,5.039-1.783,5.992a4.434,4.434,0,0,1-2.713.74h-.969V300.34h.888a8.826,8.826,0,0,1,1.574.221,3.7,3.7,0,0,1,2.213,1.729Z" transform="translate(-50.679 -851.362)" fill="#282828"/>
    <rect id="Rectangle_1576" data-name="Rectangle 1576" width="2.442" height="24.388" transform="translate(100.908 -553.262)" fill="#282828"/>
    <path id="Path_88" data-name="Path 88" d="M194.955,317.449a2.536,2.536,0,0,1-1.205,2.465,2.764,2.764,0,0,1-1.306.295,3.376,3.376,0,0,1-1.523-.353,2.1,2.1,0,0,1-.845-.857,8.25,8.25,0,0,1-.55-3.837V303a3.04,3.04,0,0,1,1.236-2.865,2.876,2.876,0,0,1,1.512-.411,2.477,2.477,0,0,1,1.353.349,1.939,1.939,0,0,1,.736.725,7.646,7.646,0,0,1,.388,3.349v1.938h2.326V302.4a6.152,6.152,0,0,0-.36-2.24c-.655-1.705-2.295-2.682-4.5-2.682a4.735,4.735,0,0,0-4.112,1.938,6.5,6.5,0,0,0-.946,4.14v12.83a8.716,8.716,0,0,0,.353,2.965,4.666,4.666,0,0,0,4.651,3.132c3.353,0,4.492-1.81,4.872-2.891a6.108,6.108,0,0,0,.322-2.326v-4.039h-2.411Z" transform="translate(-80.415 -850.983)" fill="#282828"/>
    <path id="Path_89" data-name="Path 89" d="M224.167,297.744,219.71,322.26H222.2l1.24-7.2h4.337l1.205,7.2h2.492l-4.419-24.52Zm-.329,15.043,1.8-10.295,1.729,10.295Z" transform="translate(-100.356 -851.142)" fill="#282828"/>
    <path id="Path_90" data-name="Path 90" d="M260.826,298.1H258.45v24.384h8.539v-2.209h-6.163Z" transform="translate(-124.081 -851.362)" fill="#282828"/>
    <path id="Path_91" data-name="Path 91" d="M305.763,317.449a2.538,2.538,0,0,1-1.205,2.461,2.8,2.8,0,0,1-1.31.295,3.383,3.383,0,0,1-1.523-.353,2.089,2.089,0,0,1-.841-.841,8.228,8.228,0,0,1-.554-3.833V303a3.175,3.175,0,0,1,1.233-2.865,2.892,2.892,0,0,1,1.516-.411,2.488,2.488,0,0,1,1.353.349,1.915,1.915,0,0,1,.733.725,7.588,7.588,0,0,1,.388,3.349v1.938H307.9V302.4a6.153,6.153,0,0,0-.361-2.24c-.655-1.705-2.295-2.682-4.5-2.682a4.735,4.735,0,0,0-4.112,1.938,6.462,6.462,0,0,0-.946,4.128v12.83a8.719,8.719,0,0,0,.353,2.965,4.667,4.667,0,0,0,4.651,3.132c3.353,0,4.488-1.81,4.868-2.892a6.109,6.109,0,0,0,.322-2.326v-4.027h-2.411Z" transform="translate(-148.281 -850.983)" fill="#282828"/>
    <path id="Path_92" data-name="Path 92" d="M340.71,298.332a5.489,5.489,0,0,0-3.341-.942,4.719,4.719,0,0,0-4.764,3.1,9.079,9.079,0,0,0-.388,2.8v13.326a6.2,6.2,0,0,0,1.124,4.155,5.261,5.261,0,0,0,3.965,1.574,4.823,4.823,0,0,0,4.469-2.217,5.85,5.85,0,0,0,.775-3.275V303.79C342.535,301.887,342.535,299.72,340.71,298.332Zm-6.151,17.651V302.9a3.137,3.137,0,0,1,1.2-2.853,3.015,3.015,0,0,1,1.616-.446,2.966,2.966,0,0,1,1.411.329,1.939,1.939,0,0,1,.907.95,8.324,8.324,0,0,1,.531,3.814v11.535c0,1.407-.089,2.64-1.194,3.423a2.911,2.911,0,0,1-4.221-1.1A8.29,8.29,0,0,1,334.559,315.984Z" transform="translate(-169.255 -850.924)" fill="#282828"/>
    <path id="Path_93" data-name="Path 93" d="M372.369,309.125l-.306-.3c-.562-.6-1.093-1.163-1.6-1.764-1.419-1.616-1.938-2.426-1.938-4.55,0-1.481.329-2.411,1-2.833a2.845,2.845,0,0,1,1.485-.349,2.052,2.052,0,0,1,2.326,1.787,6.2,6.2,0,0,1,.093,1.5v2.477h2.326v-2.074c0-1.744,0-3.919-1.814-5.1a5.535,5.535,0,0,0-2.977-.729c-2.632,0-4.264,1.3-4.678,3.744a10.821,10.821,0,0,0-.143,1.849,7.461,7.461,0,0,0,1.411,4.6,24.555,24.555,0,0,0,2.771,3.043,18.789,18.789,0,0,1,2.609,2.965,5.408,5.408,0,0,1,.775,3.19c0,2.205-.643,2.845-1.132,3.14a2.837,2.837,0,0,1-1.516.388c-2.636,0-3.043-1.678-3.1-2.938-.023-.326,0-.632,0-.946v-2.783h-2.376v3.717a5.546,5.546,0,0,0,.295,2.039,4.477,4.477,0,0,0,1.267,1.853,5.309,5.309,0,0,0,.841.62,6.4,6.4,0,0,0,2.872.636c2.508,0,3.736-1.035,4.326-1.907a7.424,7.424,0,0,0,.9-4.054,6.99,6.99,0,0,0-1.585-4.884,26.369,26.369,0,0,0-2.128-2.333Z" transform="translate(-189.685 -850.798)" fill="#282828"/>
    <path id="Path_94" data-name="Path 94" d="M409.276,298.1l-3.616,18.822L402.043,298.1h-3.078l-.205,24.384h2.376l-.027-18.341,3.512,18.341h2.116l3.519-18.4.031,18.4h2.31l-.24-24.384Z" transform="translate(-210.006 -851.362)" fill="#282828"/>
    <path id="Path_95" data-name="Path 95" d="M441.57,322.484h9.074v-2.209h-6.733V310.86h5.562v-2.174h-5.562v-8.376h6.768V298.1H441.57Z" transform="translate(-236.223 -851.362)" fill="#282828"/>
    <path id="Path_96" data-name="Path 96" d="M471.52,300.309h4.12v22.175h2.411V300.309h4.19V298.1H471.52Z" transform="translate(-254.564 -851.362)" fill="#282828"/>
    <rect id="Rectangle_1577" data-name="Rectangle 1577" width="2.442" height="24.388" transform="translate(230.185 -553.262)" fill="#282828"/>
    <path id="Path_97" data-name="Path 97" d="M527.659,313.228v4.221a2.538,2.538,0,0,1-1.205,2.461,2.783,2.783,0,0,1-1.31.295,3.383,3.383,0,0,1-1.523-.353,2.088,2.088,0,0,1-.841-.841,8.227,8.227,0,0,1-.554-3.833V303a3.175,3.175,0,0,1,1.233-2.865,2.9,2.9,0,0,1,1.516-.411,2.477,2.477,0,0,1,1.353.349,1.884,1.884,0,0,1,.733.725,7.588,7.588,0,0,1,.388,3.349v1.938h2.326V302.4a6.151,6.151,0,0,0-.36-2.24c-.655-1.705-2.291-2.682-4.5-2.682a4.739,4.739,0,0,0-4.112,1.938,6.469,6.469,0,0,0-.942,4.14v12.83a8.716,8.716,0,0,0,.353,2.965,4.663,4.663,0,0,0,4.651,3.132c3.353,0,4.488-1.81,4.868-2.891a6.035,6.035,0,0,0,.322-2.326v-4.039Z" transform="translate(-284.16 -850.983)" fill="#282828"/>
    <path id="Path_98" data-name="Path 98" d="M84.811,193.91h5.333l-19.721,24.5H65.09Z" transform="translate(-5.668 -787.557)" fill="#282828"/>
    <path id="Path_99" data-name="Path 99" d="M221.836,138.85h-5.314l-19.648-24.5-3.33-4.147L161.8,70.624l-31.876,39.582H124.59L161.8,64l37.07,46.206,3.33,4.147Z" transform="translate(-42.105 -708)" fill="#282828"/>
    <path id="Path_100" data-name="Path 100" d="M152.2,187.357H64.73l3.31-4.147h80.831Z" transform="translate(-5.447 -781.004)" fill="#282828"/>
    <path id="Path_101" data-name="Path 101" d="M373.871,96.039a23.547,23.547,0,0,1-23.524,23.524H295.494l-3.33-4.151h58.183a19.38,19.38,0,1,0,0-38.76H268.706L265.28,72.5h85.067A23.547,23.547,0,0,1,373.871,96.039Z" transform="translate(-128.263 -713.205)" fill="#409e52"/>
    <path id="Path_102" data-name="Path 102" d="M310.411,121.584,306.26,116.5V95.75h4.151Z" transform="translate(-153.359 -727.444)" fill="#409e52"/>
    <path id="Path_103" data-name="Path 103" d="M310.407,211.724V226.2H306.26V206.65Z" transform="translate(-153.359 -795.358)" fill="#409e52"/>
    <path id="Path_104" data-name="Path 104" d="M496.933,224.551h-6.144l-22.469-20.6h6.14Z" transform="translate(-252.604 -793.705)" fill="#409e52"/>
  </g>
</svg>
