<svg xmlns="http://www.w3.org/2000/svg" width="132.406" height="81.826" viewBox="0 0 132.406 81.826">
  <g id="Group_2856" data-name="Group 2856" transform="translate(-1500.712 -6448.636)">
    <path id="Path_164" data-name="Path 164" d="M71.452,298.1,68.89,311.434,66.328,298.1h-2.18L64,315.374h1.686l-.019-12.993,2.485,12.993h1.5l2.5-13.037.019,13.037h1.639L73.632,298.1Z" transform="translate(1436.712 6214.817)" fill="#fff"/>
    <path id="Path_165" data-name="Path 165" d="M107.8,315.374h6.428v-1.565h-4.77v-6.67h3.94V305.6h-3.94v-5.934h4.794V298.1H107.8Z" transform="translate(1404.939 6214.817)" fill="#fff"/>
    <path id="Path_166" data-name="Path 166" d="M140.3,298.1H138.59v17.271h2.471a5.945,5.945,0,0,0,1.373-.148,4.319,4.319,0,0,0,1.774-.912,5.121,5.121,0,0,0,1.56-3.863c.025-.527.025-1,.025-1.507v-3.729c0-2.787-.184-4.426-1.2-5.651C143.453,298.213,141.847,298.1,140.3,298.1Zm3.3,2.968a11.035,11.035,0,0,1,.549,4.119v3.844c0,2.5-.321,3.57-1.263,4.245a3.141,3.141,0,0,1-1.922.524h-.686V299.687h.629a6.255,6.255,0,0,1,1.115.156,2.62,2.62,0,0,1,1.568,1.225Z" transform="translate(1382.604 6214.817)" fill="#fff"/>
    <rect id="Rectangle_1605" data-name="Rectangle 1605" width="1.73" height="17.277" transform="translate(1530.4 6512.917)" fill="#fff"/>
    <path id="Path_167" data-name="Path 167" d="M192.678,311.627a1.8,1.8,0,0,1-.854,1.746,1.957,1.957,0,0,1-.925.209,2.392,2.392,0,0,1-1.079-.25,1.488,1.488,0,0,1-.6-.607,5.846,5.846,0,0,1-.39-2.718v-8.614a2.153,2.153,0,0,1,.876-2.029,2.038,2.038,0,0,1,1.071-.291,1.755,1.755,0,0,1,.958.247,1.373,1.373,0,0,1,.522.513,5.418,5.418,0,0,1,.275,2.372v1.373h1.648v-2.611a4.357,4.357,0,0,0-.255-1.587,3.158,3.158,0,0,0-3.185-1.9,3.354,3.354,0,0,0-2.913,1.373,4.606,4.606,0,0,0-.67,2.933v9.089a6.174,6.174,0,0,0,.25,2.1,3.306,3.306,0,0,0,3.3,2.219c2.375,0,3.182-1.282,3.452-2.048a4.327,4.327,0,0,0,.228-1.647v-2.861h-1.708Z" transform="translate(1347.379 6215.267)" fill="#fff"/>
    <path id="Path_168" data-name="Path 168" d="M222.868,297.743,219.71,315.11h1.766l.879-5.1h3.073l.854,5.1h1.766l-3.13-17.37Zm-.233,10.657,1.274-7.293,1.225,7.293Z" transform="translate(1323.758 6215.078)" fill="#fff"/>
    <path id="Path_169" data-name="Path 169" d="M260.133,298.1H258.45v17.274H264.5v-1.565h-4.366Z" transform="translate(1295.655 6214.817)" fill="#fff"/>
    <path id="Path_170" data-name="Path 170" d="M303.49,311.627a1.8,1.8,0,0,1-.854,1.744,1.982,1.982,0,0,1-.928.209,2.4,2.4,0,0,1-1.079-.25,1.48,1.48,0,0,1-.6-.6,5.828,5.828,0,0,1-.393-2.716v-8.625a2.249,2.249,0,0,1,.873-2.029,2.048,2.048,0,0,1,1.074-.291,1.763,1.763,0,0,1,.958.247,1.357,1.357,0,0,1,.519.513,5.376,5.376,0,0,1,.275,2.372v1.373H305v-2.611a4.358,4.358,0,0,0-.255-1.587,3.158,3.158,0,0,0-3.185-1.9,3.354,3.354,0,0,0-2.913,1.373,4.578,4.578,0,0,0-.67,2.924v9.089a6.175,6.175,0,0,0,.25,2.1,3.306,3.306,0,0,0,3.3,2.219c2.375,0,3.18-1.282,3.449-2.048a4.327,4.327,0,0,0,.228-1.648v-2.853H303.49Z" transform="translate(1266.989 6215.267)" fill="#fff"/>
    <path id="Path_171" data-name="Path 171" d="M338.233,298.056a3.888,3.888,0,0,0-2.367-.667,3.343,3.343,0,0,0-3.375,2.2,6.428,6.428,0,0,0-.275,1.982v9.44a4.389,4.389,0,0,0,.8,2.944,3.727,3.727,0,0,0,2.809,1.115,3.417,3.417,0,0,0,3.166-1.571,4.145,4.145,0,0,0,.549-2.32v-9.254C339.526,300.574,339.526,299.039,338.233,298.056Zm-4.358,12.5v-9.27a2.222,2.222,0,0,1,.851-2.021,2.137,2.137,0,0,1,1.145-.316,2.1,2.1,0,0,1,1,.233,1.373,1.373,0,0,1,.643.673,5.9,5.9,0,0,1,.376,2.7v8.172a2.646,2.646,0,0,1-.846,2.425,2.062,2.062,0,0,1-2.99-.777A5.871,5.871,0,0,1,333.875,310.561Z" transform="translate(1242.144 6215.336)" fill="#fff"/>
    <path id="Path_172" data-name="Path 172" d="M370.388,305.642l-.217-.214c-.4-.423-.774-.824-1.131-1.249a4.04,4.04,0,0,1-1.373-3.224c0-1.049.233-1.708.706-2.007a2.015,2.015,0,0,1,1.052-.247,1.454,1.454,0,0,1,1.648,1.266,4.4,4.4,0,0,1,.066,1.06v1.755h1.648v-1.469c0-1.236,0-2.776-1.285-3.614a3.921,3.921,0,0,0-2.109-.516,3.01,3.01,0,0,0-3.314,2.653,7.666,7.666,0,0,0-.1,1.31,5.286,5.286,0,0,0,1,3.262,17.406,17.406,0,0,0,1.963,2.155,13.31,13.31,0,0,1,1.848,2.1,3.831,3.831,0,0,1,.549,2.26c0,1.562-.456,2.015-.8,2.224a2.011,2.011,0,0,1-1.074.275,1.929,1.929,0,0,1-2.2-2.081c-.016-.231,0-.448,0-.67V308.7H365.58v2.633a3.93,3.93,0,0,0,.209,1.444,3.172,3.172,0,0,0,.9,1.313,3.761,3.761,0,0,0,.6.439,4.533,4.533,0,0,0,2.035.45,3.42,3.42,0,0,0,3.064-1.351,5.259,5.259,0,0,0,.637-2.872,4.952,4.952,0,0,0-1.123-3.46A18.675,18.675,0,0,0,370.388,305.642Z" transform="translate(1217.944 6215.485)" fill="#fff"/>
    <path id="Path_173" data-name="Path 173" d="M406.21,298.1l-2.562,13.334L401.086,298.1h-2.18l-.146,17.274h1.683l-.019-12.993,2.488,12.993h1.5l2.493-13.037.022,13.037h1.637l-.17-17.274Z" transform="translate(1193.872 6214.817)" fill="#fff"/>
    <path id="Path_174" data-name="Path 174" d="M441.57,315.374H448v-1.565h-4.77v-6.67h3.94V305.6h-3.94v-5.934h4.794V298.1H441.57Z" transform="translate(1162.817 6214.817)" fill="#fff"/>
    <path id="Path_175" data-name="Path 175" d="M471.52,299.665h2.919v15.709h1.708V299.665h2.968V298.1h-7.6Z" transform="translate(1141.091 6214.817)" fill="#fff"/>
    <rect id="Rectangle_1606" data-name="Rectangle 1606" width="1.73" height="17.277" transform="translate(1621.982 6512.917)" fill="#fff"/>
    <path id="Path_176" data-name="Path 176" d="M525.381,308.636v2.99a1.8,1.8,0,0,1-.854,1.744,1.971,1.971,0,0,1-.928.209,2.4,2.4,0,0,1-1.079-.25,1.48,1.48,0,0,1-.6-.6,5.828,5.828,0,0,1-.393-2.716v-8.625a2.249,2.249,0,0,1,.873-2.029,2.057,2.057,0,0,1,1.074-.291,1.755,1.755,0,0,1,.958.247,1.334,1.334,0,0,1,.519.513,5.375,5.375,0,0,1,.275,2.372v1.373h1.648v-2.611a4.359,4.359,0,0,0-.255-1.587,3.155,3.155,0,0,0-3.185-1.9,3.358,3.358,0,0,0-2.913,1.373,4.582,4.582,0,0,0-.667,2.933v9.089a6.174,6.174,0,0,0,.25,2.1,3.3,3.3,0,0,0,3.3,2.219c2.375,0,3.18-1.282,3.449-2.048a4.273,4.273,0,0,0,.228-1.647v-2.861Z" transform="translate(1106.033 6215.267)" fill="#fff"/>
    <path id="Path_177" data-name="Path 177" d="M79.061,193.91h3.778L68.868,211.264H65.09Z" transform="translate(1435.922 6290.398)" fill="#fff"/>
    <path id="Path_178" data-name="Path 178" d="M193.48,117.025h-3.765L175.8,99.671l-2.359-2.938L150.947,68.693,128.366,96.733H124.59L150.947,64l26.261,32.733,2.359,2.938Z" transform="translate(1392.759 6384.637)" fill="#fff"/>
    <path id="Path_179" data-name="Path 179" d="M126.7,186.148H64.73l2.345-2.938h57.262Z" transform="translate(1436.183 6298.16)" fill="#fff"/>
    <path id="Path_180" data-name="Path 180" d="M342.208,89.175a16.681,16.681,0,0,1-16.665,16.665H286.684l-2.359-2.941h41.218a13.729,13.729,0,1,0,0-27.458H267.707L265.28,72.5h60.263a16.681,16.681,0,0,1,16.664,16.676Z" transform="translate(1290.7 6378.471)" fill="#75ea8b"/>
    <path id="Path_181" data-name="Path 181" d="M309.2,114.051l-2.941-3.6V95.75H309.2Z" transform="translate(1260.973 6361.605)" fill="#75ea8b"/>
    <path id="Path_182" data-name="Path 182" d="M309.2,210.244V220.5H306.26V206.65Z" transform="translate(1260.973 6281.156)" fill="#75ea8b"/>
    <path id="Path_183" data-name="Path 183" d="M488.59,218.544h-4.352L468.32,203.95h4.349Z" transform="translate(1143.412 6283.115)" fill="#75ea8b"/>
  </g>
</svg>
