<svg xmlns="http://www.w3.org/2000/svg" width="22.239" height="18.19" viewBox="0 0 22.239 18.19">
  <g id="mail" transform="translate(-2 -5)">
    <path id="Path_51" data-name="Path 51" d="M5.024,5H21.215a3.027,3.027,0,0,1,3.024,3.024V20.167a3.027,3.027,0,0,1-3.024,3.024H5.024A3.027,3.027,0,0,1,2,20.167V8.024A3.027,3.027,0,0,1,5.024,5ZM21.215,21.191a1.025,1.025,0,0,0,1.024-1.024V8.024A1.025,1.025,0,0,0,21.215,7H5.024A1.025,1.025,0,0,0,4,8.024V20.167a1.025,1.025,0,0,0,1.024,1.024Z" fill="#fff"/>
    <path id="Path_52" data-name="Path 52" d="M13.119,17.083a1,1,0,0,1-.573-.181L2.427,9.819A1,1,0,1,1,3.573,8.181l9.546,6.682,9.546-6.682a1,1,0,1,1,1.147,1.638L13.693,16.9A1,1,0,0,1,13.119,17.083Z" transform="translate(0 -0.976)" fill="#fff"/>
  </g>
</svg>
