<svg xmlns="http://www.w3.org/2000/svg" width="15.683" height="15.683" viewBox="0 0 15.683 15.683">
  <path id="Icon_awesome-phone-alt" data-name="Icon awesome-phone-alt" d="M15.236,11.083l-3.431-1.47a.735.735,0,0,0-.858.211L9.428,11.68A11.354,11.354,0,0,1,4,6.252L5.857,4.733a.733.733,0,0,0,.211-.858L4.6.445A.74.74,0,0,0,3.755.019L.57.754A.735.735,0,0,0,0,1.471,14.211,14.211,0,0,0,14.213,15.684a.735.735,0,0,0,.717-.57l.735-3.186a.744.744,0,0,0-.429-.845Z" transform="translate(0 0)" fill="#fff"/>
</svg>
