<svg id="phone" xmlns="http://www.w3.org/2000/svg" width="19.668" height="19.668" viewBox="0 0 19.668 19.668">
  <g id="Group_37" data-name="Group 37">
    <path id="Path_24" data-name="Path 24" d="M18.09,12.91a11.167,11.167,0,0,1-3.507-.559,1.6,1.6,0,0,0-1.559.329l-2.211,1.669A12.221,12.221,0,0,1,5.318,8.856L6.938,6.7a1.59,1.59,0,0,0,.391-1.611,11.184,11.184,0,0,1-.561-3.513A1.58,1.58,0,0,0,5.19,0H1.578A1.58,1.58,0,0,0,0,1.578a18.11,18.11,0,0,0,18.09,18.09,1.58,1.58,0,0,0,1.578-1.578v-3.6A1.58,1.58,0,0,0,18.09,12.91Z" fill="#fff"/>
  </g>
</svg>
