<svg xmlns="http://www.w3.org/2000/svg" width="22" height="31.241" viewBox="0 0 22 31.241">
  <g id="scroll" transform="translate(-75.726)">
    <g id="Group_13" data-name="Group 13" transform="translate(75.726)">
      <g id="Group_12" data-name="Group 12" transform="translate(0)">
        <path id="Path_225" data-name="Path 225" d="M86.726,0a11.1,11.1,0,0,0-11,11.172v8.9a11,11,0,1,0,22,.034V11.172A11.1,11.1,0,0,0,86.726,0Zm8.931,20.1A8.932,8.932,0,1,1,77.8,20.069v-8.9a8.933,8.933,0,1,1,17.862,0Z" transform="translate(-75.726)" fill="#282828"/>
      </g>
    </g>
    <g id="Group_15" data-name="Group 15" transform="translate(85.692 8.552)">
      <g id="Group_14" data-name="Group 14" transform="translate(0)">
        <path id="Path_226" data-name="Path 226" d="M240.081,140.15a1.034,1.034,0,0,0-1.035,1.034v3.621a1.035,1.035,0,1,0,2.069,0v-3.621A1.034,1.034,0,0,0,240.081,140.15Z" transform="translate(-239.046 -140.15)" fill="#282828"/>
      </g>
    </g>
  </g>
</svg>
