<svg xmlns="http://www.w3.org/2000/svg" width="27.5" height="27.5" viewBox="0 0 27.5 27.5">
  <g id="Icon_feather-search" data-name="Icon feather-search" transform="translate(0.75 0.75)">
    <path id="Path_37" data-name="Path 37" d="M16.055,3.75h0a12.306,12.306,0,0,1,8.7,21.007,12.305,12.305,0,1,1-17.4-17.4,12.225,12.225,0,0,1,8.7-3.6Zm0,23.111a10.806,10.806,0,0,0,0-21.611h0a10.806,10.806,0,0,0,0,21.611Z" transform="translate(-4.5 -4.5)"/>
    <path id="Path_38" data-name="Path 38" d="M31.258,32.008a.748.748,0,0,1-.53-.22l-6.283-6.283a.75.75,0,0,1,1.061-1.061l6.283,6.283a.75.75,0,0,1-.53,1.28Z" transform="translate(-5.258 -5.258)"/>
  </g>
</svg>
