<svg xmlns="http://www.w3.org/2000/svg" width="56" height="56" viewBox="0 0 56 56">
  <g id="Group_3078" data-name="Group 3078" transform="translate(-1547 -2838.106)">
    <g id="Group_2504" data-name="Group 2504" transform="translate(1807 3963.106) rotate(180)">
      <path id="Ellipse_35" data-name="Ellipse 35" d="M28,2A26.007,26.007,0,0,0,17.88,51.958,26.007,26.007,0,0,0,38.12,4.042,25.835,25.835,0,0,0,28,2m0-2A28,28,0,1,1,0,28,28,28,0,0,1,28,0Z" transform="translate(204 1069)"/>
      <path id="Icon_feather-chevron-right" data-name="Icon feather-chevron-right" d="M13.5,23a1,1,0,0,1-.707-1.707L18.586,15.5,12.793,9.707a1,1,0,0,1,1.414-1.414l6.5,6.5a1,1,0,0,1,0,1.414l-6.5,6.5A1,1,0,0,1,13.5,23Z" transform="translate(248.5 1112.5) rotate(180)"/>
    </g>
  </g>
</svg>
