<svg xmlns="http://www.w3.org/2000/svg" width="61.525" height="69.504" viewBox="0 0 61.525 69.504">
  <g id="delivery-box_1_" data-name="delivery-box(1)" transform="translate(-29.372)">
    <g id="Group_2987" data-name="Group 2987" transform="translate(29.372)">
      <path id="Path_328" data-name="Path 328" d="M90.749,245.171l-4.865-9.555a1.358,1.358,0,0,0-1.21-.742H35.595a1.358,1.358,0,0,0-1.21.742l-4.865,9.555a1.358,1.358,0,0,0,1.21,1.974h1.7V271.12a1.358,1.358,0,0,0,1.358,1.358h52.7a1.358,1.358,0,0,0,1.358-1.358V247.146h1.7a1.358,1.358,0,0,0,1.211-1.975Zm-6.908-7.581,3.482,6.839H65.832L62.35,237.59Zm-47.414,0H57.919l-3.482,6.839H32.945Zm48.7,32.171H61.493v-7.527a1.358,1.358,0,0,0-2.716,0v7.527H35.142V247.146H55.27a1.358,1.358,0,0,0,1.21-.742l2.3-4.51v8.144a1.358,1.358,0,1,0,2.716,0v-8.144l2.3,4.51a1.358,1.358,0,0,0,1.21.742H85.123Z" transform="translate(-29.372 -202.974)" fill="#409e52"/>
      <path id="Path_329" data-name="Path 329" d="M112.51,436.98h-7.734a1.358,1.358,0,0,0,0,2.716h7.734a1.358,1.358,0,0,0,0-2.716Z" transform="translate(-93.361 -377.631)" fill="#409e52"/>
      <path id="Path_330" data-name="Path 330" d="M167.166,27.906a13.953,13.953,0,1,0-13.941-13.955,13.962,13.962,0,0,0,13.941,13.955Zm0-25.19a11.237,11.237,0,1,1-11.225,11.235A11.241,11.241,0,0,1,167.166,2.716Z" transform="translate(-136.404)" fill="#409e52"/>
      <path id="Path_331" data-name="Path 331" d="M207.985,70.247l3.615,3.064a1.358,1.358,0,0,0,.878.322q.058,0,.116,0a1.358,1.358,0,0,0,.926-.482l6.8-8.131a1.358,1.358,0,1,0-2.083-1.743l-5.926,7.082-2.572-2.181a1.358,1.358,0,0,0-1.757,2.072Z" transform="translate(-183.312 -54.259)" fill="#409e52"/>
      <path id="Path_332" data-name="Path 332" d="M50.778,95.436h5.876a1.358,1.358,0,1,0,0-2.716H50.778a1.358,1.358,0,0,0,0,2.716Z" transform="translate(-46.697 -80.127)" fill="#409e52"/>
      <path id="Path_333" data-name="Path 333" d="M50.143,26.85l5.876,3.1a1.358,1.358,0,1,0,1.267-2.4l-5.876-3.1a1.358,1.358,0,1,0-1.267,2.4Z" transform="translate(-46.696 -20.991)" fill="#409e52"/>
      <path id="Path_334" data-name="Path 334" d="M49.575,143.442a1.357,1.357,0,0,0,1.835.569l5.876-3.1a1.358,1.358,0,0,0-1.266-2.4l-5.876,3.1a1.358,1.358,0,0,0-.569,1.835Z" transform="translate(-46.695 -119.564)" fill="#409e52"/>
      <path id="Path_335" data-name="Path 335" d="M400.389,95.436h5.876a1.358,1.358,0,1,0,0-2.716h-5.876a1.358,1.358,0,0,0,0,2.716Z" transform="translate(-348.825 -80.127)" fill="#409e52"/>
      <path id="Path_336" data-name="Path 336" d="M400.389,30.106a1.352,1.352,0,0,0,.632-.157l5.876-3.1a1.358,1.358,0,1,0-1.267-2.4l-5.876,3.1a1.358,1.358,0,0,0,.635,2.56Z" transform="translate(-348.824 -20.991)" fill="#409e52"/>
      <path id="Path_337" data-name="Path 337" d="M399.754,140.914l5.876,3.1a1.358,1.358,0,0,0,1.266-2.4l-5.876-3.1a1.358,1.358,0,0,0-1.266,2.4Z" transform="translate(-348.823 -119.563)" fill="#409e52"/>
      <path id="Path_338" data-name="Path 338" d="M247.231,381.423a1.358,1.358,0,0,0-1.358,1.358v.008a1.358,1.358,0,1,0,1.358-1.366Z" transform="translate(-216.469 -329.619)" fill="#409e52"/>
    </g>
  </g>
</svg>
