<svg xmlns="http://www.w3.org/2000/svg" width="21.115" height="27.871" viewBox="0 0 21.115 27.871">
  <g id="time" transform="translate(-35.998)" opacity="0.5">
    <path id="Path_354" data-name="Path 354" d="M56.175,26H54.515V23.034c0-2.969-1.629-5.7-4.587-7.686a1.69,1.69,0,0,1-.607-1.413,1.69,1.69,0,0,1,.607-1.413c2.958-1.987,4.587-4.717,4.587-7.686V1.875h1.659a.938.938,0,0,0,0-1.875H36.936a.938.938,0,0,0,0,1.875H38.6V4.837c0,2.969,1.629,5.7,4.586,7.686a1.69,1.69,0,0,1,.607,1.413,1.69,1.69,0,0,1-.607,1.413c-2.958,1.987-4.587,4.717-4.587,7.686V26H36.936a.938.938,0,0,0,0,1.875H56.175a.938.938,0,1,0,0-1.875Zm-15.7-2.962c0-3.137,2.354-5.186,3.757-6.129a3.518,3.518,0,0,0,1.436-2.969,3.518,3.518,0,0,0-1.436-2.969c-1.4-.943-3.757-2.993-3.757-6.129V1.875H52.64V4.837c0,3.137-2.354,5.186-3.757,6.129a3.518,3.518,0,0,0-1.436,2.969A3.518,3.518,0,0,0,48.883,16.9c1.4.943,3.757,2.993,3.757,6.129V26h-.311c-.771-2.9-4.7-6.047-5.2-6.432a.938.938,0,0,0-1.155,0c-.492.384-4.426,3.534-5.2,6.432H40.47V23.034ZM50.359,26H42.752a15.172,15.172,0,0,1,3.8-4.482A15.169,15.169,0,0,1,50.359,26Z" fill="#fff"/>
    <path id="Path_355" data-name="Path 355" d="M139.443,172.905a.938.938,0,1,0-.663-.275A.944.944,0,0,0,139.443,172.905Z" transform="translate(-92.888 -154.98)" fill="#fff"/>
    <path id="Path_356" data-name="Path 356" d="M139.446,103.9a.938.938,0,0,0,.938-.938v-1.658a.938.938,0,1,0-1.875,0v1.658A.938.938,0,0,0,139.446,103.9Z" transform="translate(-92.89 -90.951)" fill="#fff"/>
  </g>
</svg>
