<svg xmlns="http://www.w3.org/2000/svg" width="21" height="25.077" viewBox="0 0 21 25.077">
  <g id="user_6_" data-name="user(6)" transform="translate(0.25 0.25)">
    <path id="Path_109" data-name="Path 109" d="M92.992,11.762a5.807,5.807,0,0,0,4.214-1.723,5.653,5.653,0,0,0,1.746-4.158,5.654,5.654,0,0,0-1.746-4.158,6.016,6.016,0,0,0-8.428,0,5.653,5.653,0,0,0-1.746,4.158,5.653,5.653,0,0,0,1.746,4.159A5.809,5.809,0,0,0,92.992,11.762ZM89.8,2.735a4.552,4.552,0,0,1,6.378,0A4.224,4.224,0,0,1,97.5,5.881a4.224,4.224,0,0,1-1.321,3.147,4.551,4.551,0,0,1-6.378,0,4.223,4.223,0,0,1-1.322-3.147A4.223,4.223,0,0,1,89.8,2.735Zm0,0" transform="translate(-82.896 -0.015)"/>
    <path id="Path_109_-_Outline" data-name="Path 109 - Outline" d="M92.977,11.982A6.036,6.036,0,0,1,88.6,10.19a5.881,5.881,0,0,1-1.815-4.325A5.88,5.88,0,0,1,88.6,1.542a6.251,6.251,0,0,1,8.761,0,5.881,5.881,0,0,1,1.815,4.324,5.881,5.881,0,0,1-1.815,4.324A6.034,6.034,0,0,1,92.977,11.982Zm0-11.762a5.57,5.57,0,0,0-4.044,1.654,5.429,5.429,0,0,0-1.676,3.992,5.429,5.429,0,0,0,1.676,3.992,5.77,5.77,0,0,0,8.088,0A5.429,5.429,0,0,0,98.7,5.866,5.429,5.429,0,0,0,97.02,1.873,5.572,5.572,0,0,0,92.977.22Zm0,10.331a4.564,4.564,0,0,1-3.355-1.373,4.447,4.447,0,0,1-1.391-3.313,4.447,4.447,0,0,1,1.391-3.312,4.788,4.788,0,0,1,6.711,0,4.448,4.448,0,0,1,1.39,3.312,4.448,4.448,0,0,1-1.39,3.313A4.563,4.563,0,0,1,92.977,10.551Zm0-8.9a4.105,4.105,0,0,0-3.019,1.235,4,4,0,0,0-1.251,2.98,4,4,0,0,0,1.251,2.98,4.307,4.307,0,0,0,6.038,0,4,4,0,0,0,1.251-2.981A4,4,0,0,0,96,2.885,4.106,4.106,0,0,0,92.977,1.651Z" transform="translate(-82.881)"/>
    <path id="Path_110" data-name="Path 110" d="M20.481,254.3a14.42,14.42,0,0,0-.2-1.543A12.078,12.078,0,0,0,19.9,251.2a7.633,7.633,0,0,0-.643-1.447,5.459,5.459,0,0,0-.969-1.253,4.278,4.278,0,0,0-1.392-.868,4.844,4.844,0,0,0-1.777-.319,1.812,1.812,0,0,0-.963.405c-.289.187-.626.4-1,.642a5.772,5.772,0,0,1-1.3.568,5.079,5.079,0,0,1-3.176,0,5.755,5.755,0,0,1-1.3-.567c-.373-.237-.711-.453-1-.642a1.81,1.81,0,0,0-.963-.405,4.838,4.838,0,0,0-1.777.319,4.274,4.274,0,0,0-1.392.868,5.46,5.46,0,0,0-.969,1.253A7.647,7.647,0,0,0,.631,251.2a12.107,12.107,0,0,0-.382,1.551,14.322,14.322,0,0,0-.2,1.543c-.033.466-.049.952-.049,1.442a4.038,4.038,0,0,0,1.214,3.068,4.388,4.388,0,0,0,3.127,1.132H16.19a4.388,4.388,0,0,0,3.127-1.132,4.037,4.037,0,0,0,1.214-3.068C20.53,255.248,20.514,254.763,20.481,254.3Zm-2.158,3.473a2.955,2.955,0,0,1-2.133.738H4.341a2.955,2.955,0,0,1-2.133-.737,2.636,2.636,0,0,1-.766-2.031c0-.458.015-.909.046-1.343a12.919,12.919,0,0,1,.18-1.39A10.679,10.679,0,0,1,2,251.64a6.226,6.226,0,0,1,.523-1.176,4.046,4.046,0,0,1,.712-.926,2.838,2.838,0,0,1,.926-.571,3.341,3.341,0,0,1,1.136-.217c.051.027.14.077.286.172.3.192.638.41,1.016.65a7.172,7.172,0,0,0,1.63.723,6.531,6.531,0,0,0,4.063,0,7.18,7.18,0,0,0,1.631-.723c.387-.245.719-.458,1.015-.649.146-.094.236-.145.286-.172a3.344,3.344,0,0,1,1.136.217,2.842,2.842,0,0,1,.926.571,4.036,4.036,0,0,1,.712.926,6.205,6.205,0,0,1,.523,1.176,10.654,10.654,0,0,1,.336,1.368,13.027,13.027,0,0,1,.18,1.39h0c.031.432.046.884.046,1.342A2.636,2.636,0,0,1,18.322,257.771Zm0,0" transform="translate(-0.015 -235.348)"/>
    <path id="Path_110_-_Outline" data-name="Path 110 - Outline" d="M16.173,260.159H4.327a4.616,4.616,0,0,1-3.29-1.2A4.264,4.264,0,0,1-.25,255.725c0-.5.017-.987.05-1.458A14.558,14.558,0,0,1,0,252.7a12.343,12.343,0,0,1,.39-1.581,7.883,7.883,0,0,1,.662-1.491,5.7,5.7,0,0,1,1.011-1.307,4.509,4.509,0,0,1,1.469-.917,5.074,5.074,0,0,1,1.864-.336,1.989,1.989,0,0,1,1.092.443c.291.188.629.4,1,.641a5.522,5.522,0,0,0,1.243.542,4.839,4.839,0,0,0,3.03,0,5.542,5.542,0,0,0,1.244-.542c.374-.237.711-.453,1-.641a1.992,1.992,0,0,1,1.092-.444,5.079,5.079,0,0,1,1.864.336,4.513,4.513,0,0,1,1.468.917,5.693,5.693,0,0,1,1.011,1.307,7.867,7.867,0,0,1,.662,1.491,12.316,12.316,0,0,1,.39,1.581,14.662,14.662,0,0,1,.2,1.568c.033.47.05.961.05,1.458a4.262,4.262,0,0,1-1.287,3.238A4.616,4.616,0,0,1,16.173,260.159ZM5.4,247.536a4.6,4.6,0,0,0-1.69.3,4.039,4.039,0,0,0-1.316.819,5.227,5.227,0,0,0-.926,1.2,7.414,7.414,0,0,0-.623,1.4,11.875,11.875,0,0,0-.375,1.521,14.1,14.1,0,0,0-.2,1.518c-.032.461-.049.94-.049,1.426a3.814,3.814,0,0,0,1.14,2.9,4.158,4.158,0,0,0,2.964,1.067H16.173a4.158,4.158,0,0,0,2.963-1.067,3.812,3.812,0,0,0,1.14-2.9c0-.487-.017-.967-.049-1.426a14.193,14.193,0,0,0-.2-1.518,11.849,11.849,0,0,0-.375-1.521,7.4,7.4,0,0,0-.623-1.4,5.225,5.225,0,0,0-.927-1.2,4.042,4.042,0,0,0-1.316-.819,4.606,4.606,0,0,0-1.69-.3c-.172,0-.356.059-.834.367-.291.188-.629.4-1,.643a6,6,0,0,1-1.353.593,5.316,5.316,0,0,1-3.321,0,5.981,5.981,0,0,1-1.352-.593c-.375-.238-.714-.454-1.006-.644C5.753,247.595,5.569,247.536,5.4,247.536Zm10.776,11.192H4.327a3.179,3.179,0,0,1-2.3-.8,2.857,2.857,0,0,1-.839-2.2c0-.465.016-.922.046-1.359a13.155,13.155,0,0,1,.183-1.415,10.911,10.911,0,0,1,.344-1.4,6.462,6.462,0,0,1,.543-1.221,4.281,4.281,0,0,1,.754-.98,3.072,3.072,0,0,1,1-.62A3.579,3.579,0,0,1,5.28,248.5l.062,0,.055.029c.08.042.183.1.3.182.308.2.649.417,1.014.649a6.935,6.935,0,0,0,1.575.7,6.29,6.29,0,0,0,3.917,0,6.948,6.948,0,0,0,1.576-.7c.393-.249.724-.461,1.013-.648.123-.079.225-.141.3-.182l.055-.029.062,0a3.581,3.581,0,0,1,1.217.234,3.075,3.075,0,0,1,1,.62,4.269,4.269,0,0,1,.754.98,6.438,6.438,0,0,1,.543,1.22,10.887,10.887,0,0,1,.344,1.4,13.265,13.265,0,0,1,.183,1.415v.008c.03.433.046.887.046,1.351a2.858,2.858,0,0,1-.839,2.2A3.179,3.179,0,0,1,16.173,258.728ZM5.229,248.971a3.069,3.069,0,0,0-.991.2,2.6,2.6,0,0,0-.849.523,3.813,3.813,0,0,0-.67.873,5.993,5.993,0,0,0-.5,1.132,10.446,10.446,0,0,0-.329,1.338A12.689,12.689,0,0,0,1.71,254.4c-.03.426-.045.873-.045,1.327a2.416,2.416,0,0,0,.692,1.861,2.729,2.729,0,0,0,1.969.673H16.173a2.73,2.73,0,0,0,1.969-.673,2.416,2.416,0,0,0,.692-1.861c0-.455-.016-.9-.046-1.326v-.009a12.821,12.821,0,0,0-.177-1.357,10.422,10.422,0,0,0-.329-1.337,5.969,5.969,0,0,0-.5-1.132,3.8,3.8,0,0,0-.67-.873,2.606,2.606,0,0,0-.849-.523,3.072,3.072,0,0,0-.991-.2c-.049.028-.119.07-.214.132-.29.188-.622.4-1.017.65a7.413,7.413,0,0,1-1.685.749,6.766,6.766,0,0,1-4.208,0,7.4,7.4,0,0,1-1.684-.748c-.366-.232-.709-.451-1.018-.651C5.349,249.041,5.279,249,5.229,248.971Z" transform="translate(0 -235.333)"/>
  </g>
</svg>
